<?xml version="1.0" encoding="UTF-8"?>
<svg id="Layer_2" data-name="Layer 2" xmlns="http://www.w3.org/2000/svg" viewBox="0 0 63.9 75.78">
  <defs>
    <style>
      .cls-1 {
        fill: #ffffff;
      }
    </style>
  </defs>
  <g id="OBJECTS">
    <g>
      <g>
        <path class="cls-1" d="m27.11,1c-.1,5-.81,10.18-3.47,14.52-2.33,3.8-6.28,6.8-10.83,7.06-1.3.07-1.27,1.87,0,2,9.72,1.01,16.83,10.12,15.42,19.81-.18,1.24,1.65,1.82,1.93.53,1.8-8.43,5.98-19,15.91-20.05,1.01-.11,1.48-1.79.27-1.96-10.43-1.47-17.97-11.13-16.43-21.65.18-1.26-1.74-1.8-1.93-.53-.83,5.69.54,11.55,4.07,16.14,3.33,4.33,8.35,7.22,13.75,7.98l.27-1.96c-4.73.5-8.85,3.15-11.77,6.85-3.34,4.23-4.96,9.48-6.07,14.67l1.93.53c.79-5.4-.58-10.92-4.01-15.21s-8.16-6.59-13.34-7.13v2c5.03-.29,9.38-3.3,12.15-7.41,3.18-4.72,4.03-10.6,4.15-16.17.03-1.29-1.97-1.29-2,0h0Z"/>
        <path class="cls-1" d="m11.12,41.01c.59,6.98-3.78,13.93-10.43,16.26-1.2.42-.71,2.31.53,1.93,3.01-.92,5.76,1.49,7.09,4,1.52,2.88,2.03,6.19,3.34,9.17.49,1.11,2,.26,1.83-.77-.87-5.19,2.2-10.45,6.98-12.49.99-.42.38-1.81-.5-1.86-2.75-.18-4.97-2.23-6.11-4.64-1.39-2.93-1.28-6.34-1.02-9.49.11-1.28-1.9-1.28-2,0-.31,3.74-.28,7.78,1.63,11.14,1.58,2.77,4.28,4.78,7.5,4.99l-.5-1.86c-5.66,2.42-8.91,8.74-7.9,14.75l1.83-.77c-1.55-3.52-1.95-7.6-4.34-10.72-1.95-2.54-5.11-4.35-8.35-3.37l.53,1.93c7.45-2.61,12.57-10.29,11.9-18.19-.11-1.27-2.11-1.28-2,0h0Z"/>
      </g>
      <path class="cls-1" d="m52.65,37.63c1.29,0,1.29-2,0-2s-1.29,2,0,2h0Z"/>
      <path class="cls-1" d="m51.57,37.89c-.24,4.14-4.51,6.25-7.75,7.84-.86.42-.48,1.96.5,1.86,4.52-.46,6.84,4.06,7.85,7.75.24.88,1.78,1.02,1.93,0,.48-3.25,2.22-7.21,6.08-7.12,1.17.03,1.3-1.61.27-1.96-3.57-1.21-6.25-4.59-6.58-8.35-.11-1.27-2.11-1.28-2,0,.41,4.69,3.58,8.77,8.05,10.28l.27-1.96c-4.76-.11-7.4,4.43-8.01,8.59h1.93c-.67-2.43-1.64-4.87-3.43-6.7-1.64-1.68-3.98-2.76-6.35-2.51l.5,1.86c4-1.96,8.46-4.59,8.74-9.56.07-1.29-1.93-1.28-2,0h0Z"/>
      <path class="cls-1" d="m53.49,37.32s0-.01.01-.02c.04-.08.08-.17.11-.25,0,0,0-.01,0-.02,0,.05.03-.18.04-.27,0,0,0,0,0,0,0-.09-.02-.19-.04-.28,0,0,0-.01,0-.02,0,0,0,0,0,0-.02-.04-.04-.09-.05-.12-.01-.03-.03-.08-.05-.12,0,0,0-.01,0-.02s0-.01-.01-.02c-.04-.05-.12-.15-.16-.2,0,0,0,0,0,0,0,0,0,0,0,0,0,0,0,0-.01-.01-.07-.06-.14-.11-.22-.17,0,0,0,0-.01,0-.04-.02-.11-.05-.14-.06-.02-.01-.09-.04-.13-.06,0,0,0,0,0,0,0,0,0,0,0,0,0,0,0,0,0,0l-.27-.04s-.01,0-.02,0c-.1,0-.19.02-.28.04,0,0,0,0,0,0-.08.03-.17.07-.25.1,0,0-.01,0-.02.01-.12.06-.21.15-.28.26-.09.1-.15.21-.18.34-.04.13-.05.27-.02.4,0,.13.05.26.12.37l.16.2c.12.12.27.21.44.26l.27.04c.18,0,.35-.05.5-.14,0,0,.01,0,.02-.01l-.24.1s.02,0,.03,0l-.27.04s.02,0,.03,0l-.27-.04s.02,0,.03,0l-.24-.1s.02.01.04.02l-.2-.16s.02.02.03.03l-.16-.2s.02.02.02.04l-.1-.24s0,.02,0,.03l-.04-.27s0,.02,0,.03l.04-.27s0,.02,0,.03l.1-.24s0,.02-.01.02c-.07.11-.11.24-.12.37-.03.13-.02.27.02.4.03.13.09.24.18.34.07.11.16.19.28.26l.24.1c.18.05.35.05.53,0l.24-.1c.15-.09.27-.21.36-.36h0Z"/>
    </g>
  </g>
</svg>