<?xml version="1.0" encoding="UTF-8"?>
<svg id="Layer_2" data-name="Layer 2" xmlns="http://www.w3.org/2000/svg" viewBox="0 0 77.23 73.51">
  <defs>
    <style>
      .cls-1 {
        fill: #ffffff;
      }
    </style>
  </defs>
  <g id="OBJECTS">
    <g>
      <path class="cls-1" d="m64.97,33.62c-.05-.24-.22-.46-.54-.49-3.22-.26-6.45-.74-9.54-1.74-2.41-.77-4.92-1.33-5.49-4.23-.46-2.33.97-3.72,2.24-5.41.03-.04.04-.09.03-.13.23-.23-.09-.66-.37-.47-2.65,1.73-5.39,3.7-8.34,1.2-1.94-1.64-2.25-3.86-2.85-6.14-.73-2.74-.97-5.54-1.35-8.33,0-.07-.05-.12-.1-.16,0-.45-.72-.55-.81-.09-.73,3.45-1.33,6.94-2.33,10.32-.86,2.89-1.77,6.57-5.5,6.46-2.98-.08-4-1.88-6.06-3.51-.55-.44-1.31.26-.8.8,1.41,1.49,2.72,2.74,2.88,4.92.14,1.92-.98,3.78-2.52,4.93-1.79,1.34-4.74,2.37-7.01,2.12-1.71-.19-3.45-.2-5.17,0-.96.11-1.01,1.5,0,1.53,1.79.05,3.6.1,5.39.05,1.49-.04,3.77.21,5.1.94.33.18.64.42.93.67,1.15.94,2.28,1.98,2.93,3.32,2.05,4.25-1.45,7.15-3.93,10.06-.45.53.3,1.3.77.77,1.37-1.53,2.76-3.56,4.75-4.24,2.06-.7,4.48-.41,6.25.89.32.24.62.5.85.83.25.35.4.75.56,1.15.58,1.52,1.09,3.02,1.4,4.62.62,3.21.84,6.48,1.1,9.73.07.94,1.54.96,1.48,0-.17-3.2.03-6.42.68-9.56.69-3.32.86-7.3,5.05-7.88,2.71-.38,4.65,1.24,6.62,2.81.43.34.94-.16.62-.59.1-.15.12-.36-.03-.54-1.74-2.05-3.55-4.11-2.85-6.99.76-3.15,3.72-4.07,6.51-4.85,3.07-.87,6.26-1.25,9.42-1.61.74-.08.75-1.06.02-1.16Z"/>
      <path class="cls-1" d="m77.03,10.15c-.02-.09-.09-.18-.21-.19-1.24-.1-2.49-.29-3.68-.67-.93-.3-1.9-.51-2.12-1.63-.18-.9.37-1.44.87-2.09.01-.02.01-.03.01-.05.09-.09-.03-.25-.14-.18-1.02.67-2.08,1.43-3.22.46-.75-.63-.87-1.49-1.1-2.37-.28-1.06-.37-2.14-.52-3.22,0-.03-.02-.05-.04-.06,0-.17-.28-.21-.31-.04-.28,1.33-.51,2.68-.9,3.98-.33,1.12-.68,2.54-2.12,2.5-1.15-.03-1.55-.72-2.34-1.35-.21-.17-.51.1-.31.31.55.58,1.05,1.06,1.11,1.9.05.74-.38,1.46-.97,1.9-.69.52-1.83.92-2.71.82-.66-.07-1.33-.08-2,0-.37.04-.39.58,0,.59.69.02,1.39.04,2.08.02.57-.02,1.46.08,1.97.36.13.07.25.16.36.26.44.36.88.76,1.13,1.28.79,1.64-.56,2.76-1.52,3.88-.17.2.12.5.3.3.53-.59,1.07-1.38,1.83-1.64.8-.27,1.73-.16,2.41.34.12.09.24.19.33.32.1.13.16.29.21.44.23.59.42,1.16.54,1.78.24,1.24.32,2.5.42,3.76.03.36.59.37.57,0-.07-1.23.01-2.48.26-3.69.27-1.28.33-2.82,1.95-3.04,1.05-.14,1.79.48,2.56,1.08.17.13.36-.06.24-.23.04-.06.05-.14-.01-.21-.67-.79-1.37-1.59-1.1-2.7.29-1.21,1.44-1.57,2.51-1.87,1.19-.34,2.42-.48,3.64-.62.29-.03.29-.41,0-.45Z"/>
      <path class="cls-1" d="m20.99,61.5c-.02-.09-.09-.18-.21-.19-1.24-.1-2.49-.29-3.68-.67-.93-.3-1.9-.51-2.12-1.63-.18-.9.37-1.44.87-2.09.01-.02.01-.03.01-.05.09-.09-.03-.25-.14-.18-1.02.67-2.08,1.43-3.22.46-.75-.63-.87-1.49-1.1-2.37-.28-1.06-.37-2.14-.52-3.22,0-.03-.02-.05-.04-.06,0-.17-.28-.21-.31-.04-.28,1.33-.51,2.68-.9,3.98-.33,1.12-.68,2.54-2.12,2.5-1.15-.03-1.55-.72-2.34-1.35-.21-.17-.51.1-.31.31.55.58,1.05,1.06,1.11,1.9.05.74-.38,1.46-.97,1.9-.69.52-1.83.92-2.71.82-.66-.07-1.33-.08-2,0-.37.04-.39.58,0,.59.69.02,1.39.04,2.08.02.57-.02,1.46.08,1.97.36.13.07.25.16.36.26.44.36.88.76,1.13,1.28.79,1.64-.56,2.76-1.52,3.88-.17.2.12.5.3.3.53-.59,1.07-1.38,1.83-1.64.8-.27,1.73-.16,2.41.34.12.09.24.19.33.32.1.13.16.29.21.44.23.59.42,1.16.54,1.78.24,1.24.32,2.5.42,3.76.03.36.59.37.57,0-.07-1.23.01-2.48.26-3.69.27-1.28.33-2.82,1.95-3.04,1.05-.14,1.79.48,2.56,1.08.17.13.36-.06.24-.23.04-.06.05-.14-.01-.21-.67-.79-1.37-1.59-1.1-2.7.29-1.21,1.44-1.57,2.51-1.87,1.19-.33,2.42-.48,3.64-.62.29-.03.29-.41,0-.45Z"/>
    </g>
  </g>
</svg>