<?xml version="1.0" encoding="UTF-8"?>
<svg id="Layer_2" data-name="Layer 2" xmlns="http://www.w3.org/2000/svg" viewBox="0 0 69.32 58.06">
  <defs>
    <style>
      .cls-1 {
        fill: #ffffff;
      }
    </style>
  </defs>
  <g id="OBJECTS">
    <g>
      <g>
        <path class="cls-1" d="m25.64.25c-.79,3.03-1.28,6.16-1.93,9.23-.65,3.08-1.33,6.14-1.98,9.22-.13.59.78.85.91.25.69-3.12,1.31-6.26,1.92-9.39.59-3.05,1.31-6.13,1.68-9.22.04-.35-.52-.41-.6-.08h0Z"/>
        <path class="cls-1" d="m.4,22.46c3.9-.51,7.8-1.07,11.7-1.61,2.02-.28,4.04-.53,6.06-.76,1.94-.22,3.94-.28,5.85-.75.44-.11.33-.76-.1-.77-2.02-.06-4.05.36-6.04.61-1.96.25-3.92.51-5.88.77-3.91.52-7.79,1.13-11.67,1.88-.35.07-.28.68.09.63H.4Z"/>
        <path class="cls-1" d="m.27,22.66c3.86.1,7.72.17,11.57.38,3.85.21,7.7.54,11.55.72.5.02.63-.82.12-.89-3.81-.52-7.67-.7-11.52-.81-3.91-.11-7.82-.14-11.73.04-.36.02-.37.56,0,.57H.27Z"/>
        <path class="cls-1" d="m21.82,23.18c.21,3.67,1.07,7.35,1.7,10.96.65,3.7,1.31,7.43,2.35,11.05.15.51.83.37.88-.12.37-3.8,1.16-7.58,1.87-11.33.71-3.7,1.4-7.4,2.12-11.1.1-.49-.65-.71-.76-.21-.83,3.72-1.58,7.47-2.22,11.23-.64,3.76-1.12,7.56-1.89,11.29h.86c-.68-3.65-1.58-7.26-2.32-10.9-.74-3.63-1.11-7.35-1.94-10.96-.08-.36-.67-.29-.65.09h0Z"/>
        <path class="cls-1" d="m28.07,18.5c3.71.75,7.44,1.41,11.2,1.88,3.79.48,7.66,1.02,11.49,1.08.58.01.54-.81,0-.87-3.72-.46-7.47-.67-11.2-1.13-3.78-.47-7.57-.98-11.33-1.59-.4-.06-.58.54-.17.62h0Z"/>
        <path class="cls-1" d="m30.36,24.27c3.5-.17,7.02-.76,10.49-1.21,1.7-.22,3.39-.45,5.09-.67,1.72-.22,3.52-.32,5.22-.72.51-.12.4-.93-.12-.91-1.75.06-3.51.44-5.24.67-1.75.24-3.5.47-5.24.7-3.41.46-6.9.8-10.27,1.54-.33.07-.26.61.08.59h0Z"/>
        <path class="cls-1" d="m25.81.31c.22,3.02.93,6.06,1.56,9.02.32,1.51.76,2.97,1.18,4.45.43,1.53.78,3.07,1.24,4.59.13.44.82.26.69-.19-.42-1.53-.9-3.04-1.26-4.58-.33-1.45-.59-2.91-.93-4.36-.69-2.98-1.12-6.04-1.86-9-.08-.34-.65-.28-.62.08h0Z"/>
        <path class="cls-1" d="m25.62,1.65c-.11,2.43-.25,4.88-.18,7.31.08,2.44.18,4.87.25,7.31,0,.33.53.32.51,0-.16-2.44-.18-4.87-.12-7.31.07-2.44.02-4.87.12-7.31.01-.37-.56-.37-.57,0h0Z"/>
        <path class="cls-1" d="m26,25.48c-.09,5.97-.37,11.95-.32,17.91,0,.67,1.03.67,1.03,0,.07-5.97-.18-11.95-.24-17.91,0-.3-.46-.3-.47,0h0Z"/>
        <path class="cls-1" d="m33.52,21.57c5.09.25,10.21.41,15.29-.08.44-.04.46-.72,0-.7-5.1.23-10.19.55-15.29.38-.25,0-.25.38,0,.39h0Z"/>
        <path class="cls-1" d="m19.38,21.12c-2.55.08-5.1.07-7.65.06-1.25,0-2.5.03-3.75.07-.6.02-1.2.04-1.8.05-.59,0-1.37.14-1.86-.24-.51-.4-1.06.5-.52.89.89.62,2.26.28,3.27.25,1.35-.04,2.7-.05,4.05-.14,2.75-.18,5.5-.36,8.25-.44.32,0,.32-.51,0-.5h0Z"/>
      </g>
      <g>
        <path class="cls-1" d="m51.11,26.17c-.56,2.13-.9,4.34-1.36,6.5-.46,2.17-.94,4.33-1.4,6.5-.09.42.55.6.64.18.49-2.2.92-4.41,1.35-6.62.42-2.15.92-4.32,1.18-6.5.03-.24-.36-.29-.42-.06h0Z"/>
        <path class="cls-1" d="m33.32,41.82c2.75-.36,5.5-.75,8.25-1.13,1.42-.2,2.84-.37,4.27-.54,1.37-.16,2.78-.2,4.12-.53.31-.08.23-.53-.07-.54-1.42-.04-2.85.25-4.26.43-1.38.18-2.76.36-4.14.54-2.75.37-5.49.79-8.22,1.33-.25.05-.19.48.06.44h0Z"/>
        <path class="cls-1" d="m33.24,41.97c2.72.07,5.44.12,8.15.27,2.71.15,5.42.38,8.14.51.35.02.45-.58.09-.63-2.69-.36-5.41-.5-8.12-.57-2.75-.08-5.51-.1-8.26.02-.26.01-.26.39,0,.4h0Z"/>
        <path class="cls-1" d="m48.41,42.33c.15,2.59.75,5.18,1.2,7.72.46,2.61.92,5.24,1.65,7.78.1.36.59.26.62-.08.26-2.67.82-5.34,1.32-7.98.5-2.61.99-5.21,1.49-7.82.07-.35-.46-.5-.53-.15-.58,2.62-1.11,5.26-1.56,7.91-.45,2.65-.79,5.33-1.33,7.95h.61c-.48-2.57-1.11-5.12-1.63-7.68-.52-2.56-.78-5.18-1.37-7.72-.06-.25-.47-.2-.46.06h0Z"/>
        <path class="cls-1" d="m52.82,39.04c2.62.53,5.24.99,7.89,1.33,2.67.34,5.4.72,8.1.76.41,0,.38-.57,0-.61-2.62-.32-5.26-.47-7.89-.8-2.67-.33-5.33-.69-7.98-1.12-.28-.05-.41.38-.12.44h0Z"/>
        <path class="cls-1" d="m54.43,43.1c2.46-.12,4.94-.53,7.39-.85,1.2-.16,2.39-.32,3.59-.47,1.21-.16,2.48-.22,3.68-.5.36-.08.28-.66-.09-.64-1.23.04-2.48.31-3.69.47-1.23.17-2.46.33-3.69.49-2.4.32-4.86.57-7.23,1.09-.23.05-.18.43.06.42h0Z"/>
        <path class="cls-1" d="m51.23,26.22c.15,2.13.65,4.27,1.1,6.36.23,1.06.53,2.09.83,3.13.3,1.08.55,2.16.88,3.23.09.31.57.18.49-.13-.29-1.08-.64-2.14-.89-3.23-.23-1.02-.42-2.05-.65-3.07-.49-2.1-.79-4.25-1.31-6.34-.06-.24-.46-.2-.44.06h0Z"/>
        <path class="cls-1" d="m51.09,27.16c-.08,1.71-.18,3.44-.13,5.15.05,1.72.13,3.43.17,5.15,0,.23.37.23.36,0-.11-1.72-.13-3.43-.08-5.15.05-1.72.02-3.43.08-5.15.01-.26-.39-.26-.41,0h0Z"/>
        <path class="cls-1" d="m51.37,43.95c-.06,4.21-.26,8.42-.23,12.62,0,.47.72.47.73,0,.05-4.21-.12-8.42-.17-12.62,0-.21-.33-.21-.33,0h0Z"/>
        <path class="cls-1" d="m56.66,41.2c3.59.18,7.19.29,10.78-.05.31-.03.32-.51,0-.49-3.59.16-7.18.39-10.78.27-.18,0-.18.27,0,.28h0Z"/>
        <path class="cls-1" d="m46.7,40.88c-1.8.05-3.59.05-5.39.04-.88,0-1.76.02-2.64.05-.42.01-.85.03-1.27.04-.41,0-.96.1-1.31-.17-.36-.28-.75.35-.36.62.63.44,1.59.2,2.31.17.95-.03,1.9-.04,2.85-.1,1.94-.13,3.87-.25,5.81-.31.23,0,.23-.36,0-.35h0Z"/>
      </g>
    </g>
  </g>
</svg>