<?xml version="1.0" encoding="UTF-8"?>
<svg id="Layer_2" data-name="Layer 2" xmlns="http://www.w3.org/2000/svg" viewBox="0 0 77.89 67.05">
  <defs>
    <style>
      .cls-1 {
        fill: #ffffff;
      }
    </style>
  </defs>
  <g id="OBJECTS">
    <g>
      <path class="cls-1" d="m57.48,24.65c-3.28-.26-6.6-.16-9.89-.05-.36.01-.71.02-1.07.04-1.02-.12-2.04-.3-3.04-.49-1.48-.29-2.97-.69-4.33-1.34-1.2-1.34-1.73-3.17-1.33-4.91.52-.59,1.03-1.19,1.53-1.79,2.38-2.85,4.56-5.87,6.81-8.82.22-.29-.27-.67-.5-.39-2.41,2.84-4.96,5.54-7.4,8.36-.26.3-.51.61-.77.91-.78.25-1.57.55-2.38.68-.44-.09-.89-.24-1.28-.43-.52-.25-.98-.57-1.42-.93-.84-1.83-1.4-3.79-1.66-5.72-.12-.89-.18-1.79-.22-2.69.15-2.22.16-4.45.07-6.65-.02-.56-.87-.57-.87,0,0,.73-.02,1.47-.04,2.22-.18,1.54-.28,3.13-.26,4.71-.29,3.07-.85,6.13-1.96,8.94-1.25,1.1-3.21,1.25-4.64.43-.62-.62-1.24-1.25-1.88-1.85-1.08-1.02-2.22-1.97-3.31-2.98-1.11-1.04-2.21-2.1-3.31-3.16-.28-.27-.7.15-.43.43,1.02,1.08,2.04,2.16,3.03,3.25,1.03,1.13,1.99,2.32,3.03,3.44.73.78,1.47,1.55,2.22,2.31.48,1.15.65,2.35-.08,3.53-.82,1.34-2.13,2.08-3.51,2.69-.52.06-1.05.1-1.58.14-1.23-.14-2.48-.15-3.57-.14-2.58.02-5.16,0-7.74.06-.14-.01-.29-.02-.44-.03-.13-.01-.24.01-.33.06-1.49.05-2.98.13-4.47.28-.63.07-.63.91,0,.99,3.86.43,7.72.34,11.6.4,1,.02,2.1-.03,3.2-.01,1.74.31,3.45.92,5.02,1.76.4.43.72.92.92,1.47.49,1.29.42,2.76-.24,3.97-2.84,3.11-5.46,6.39-7.88,9.85-.3.42.4.97.72.56,2.59-3.3,5.35-6.47,8.22-9.54,1.36-.35,2.87-.12,4.02.71,1.25.9,1.94,2.5,1.93,4.01,0,.35.21.57.47.65.38,1.71.61,3.45.76,5.13.33,3.53.32,7.1.28,10.64,0,.71,1.04.69,1.1,0,.18-2.21.18-4.41.11-6.61-.07-4.42.76-8.91,2.47-13,.12-.09.22-.22.26-.4.03-.15.07-.29.11-.43.11-.24.23-.48.35-.72.06-.04.11-.08.17-.11,1.41-.79,2.94-.7,4.41-.28,1.15,1.34,2.31,2.66,3.49,3.97.96,1.07,1.93,2.13,2.95,3.15,1.08,1.08,2.27,2.04,3.38,3.08.32.29.75-.15.47-.47-.97-1.12-1.85-2.33-2.82-3.46-.96-1.12-1.97-2.21-2.96-3.32-1.18-1.33-2.34-2.67-3.5-4.02-1.06-2.17-.02-4.72,1.98-5.95,1.88-.52,3.9-.61,5.83-.7,3.41-.17,6.82-.12,10.23-.24.75-.03.73-1.09,0-1.15Zm-32.61,6.92c-.07-.05-.14-.11-.21-.16,0-.03,0-.05,0-.08.07.08.14.16.2.24Zm7.68-13.25c-.25-.28-.48-.58-.69-.89.07.05.14.09.21.14.15.25.31.5.48.75Zm4.4,11.11s.02-.01.02-.02c0,.03,0,.07,0,.1,0-.03-.02-.05-.03-.08Zm-.51,2.6c.05-.01.11-.02.16-.03.03,0,.18-.03.08-.02.07-.01.14-.03.21-.04.05.06.1.12.15.17-.28-.02-.56-.03-.84,0,.08-.03.16-.05.25-.07Z"/>
      <path class="cls-1" d="m77.58,49.43c-1.85-.15-3.73-.09-5.58-.03-.2,0-.4.01-.61.02-.58-.07-1.15-.17-1.72-.28-.84-.16-1.67-.39-2.45-.76-.68-.76-.98-1.79-.75-2.77.29-.33.58-.67.87-1.01,1.35-1.61,2.58-3.31,3.85-4.98.12-.16-.15-.38-.28-.22-1.36,1.6-2.8,3.13-4.18,4.72-.15.17-.29.34-.44.51-.44.14-.89.31-1.34.39-.25-.05-.5-.14-.72-.24-.29-.14-.56-.32-.8-.52-.47-1.03-.79-2.14-.94-3.23-.07-.5-.1-1.01-.13-1.52.09-1.25.09-2.51.04-3.76-.01-.32-.49-.32-.49,0,0,.41,0,.83-.02,1.25-.1.87-.16,1.77-.15,2.66-.16,1.73-.48,3.46-1.11,5.05-.71.62-1.81.71-2.62.24-.35-.35-.7-.7-1.06-1.05-.61-.58-1.25-1.11-1.87-1.68-.63-.59-1.25-1.19-1.87-1.78-.16-.15-.4.08-.24.24.57.61,1.15,1.22,1.71,1.84.58.64,1.12,1.31,1.71,1.94.41.44.83.87,1.25,1.3.27.65.37,1.33-.04,1.99-.47.76-1.2,1.17-1.98,1.52-.3.03-.59.06-.89.08-.69-.08-1.4-.08-2.01-.08-1.46,0-2.92,0-4.37.03-.08,0-.17-.01-.25-.02-.07,0-.13,0-.19.03-.84.03-1.68.07-2.52.16-.36.04-.36.52,0,.56,2.18.24,4.36.19,6.55.23.57,0,1.19-.02,1.81,0,.99.18,1.95.52,2.83.99.22.24.41.52.52.83.27.73.24,1.56-.14,2.24-1.6,1.76-3.08,3.61-4.45,5.57-.17.24.23.55.41.31,1.46-1.86,3.02-3.66,4.64-5.39.77-.2,1.62-.07,2.27.4.71.51,1.1,1.41,1.09,2.27,0,.2.12.32.26.37.21.96.34,1.95.43,2.9.18,1.99.18,4.01.16,6.01,0,.4.59.39.62,0,.1-1.25.1-2.49.06-3.73-.04-2.49.43-5.03,1.39-7.34.07-.05.12-.12.14-.23.02-.08.04-.16.06-.24.06-.14.13-.27.2-.41.03-.02.06-.04.1-.06.8-.45,1.66-.4,2.49-.16.65.76,1.3,1.5,1.97,2.24.54.6,1.09,1.2,1.66,1.78.61.61,1.28,1.15,1.91,1.74.18.17.42-.08.27-.27-.55-.63-1.05-1.31-1.59-1.95-.54-.63-1.11-1.25-1.67-1.87-.67-.75-1.32-1.51-1.97-2.27-.6-1.23-.01-2.66,1.12-3.36,1.06-.3,2.2-.34,3.29-.4,1.93-.1,3.85-.07,5.78-.13.42-.01.41-.62,0-.65Zm-18.42,3.91s-.08-.06-.12-.09c0-.01,0-.03,0-.04.04.05.08.09.12.14Zm4.34-7.49c-.14-.16-.27-.33-.39-.5.04.03.08.05.12.08.09.14.17.28.27.42Zm2.49,6.27s0,0,.01-.01c0,.02,0,.04,0,.06,0-.02-.01-.03-.02-.05Zm-.29,1.47s.06-.01.09-.02c.02,0,.1-.02.05-.01.04,0,.08-.02.12-.02.03.03.06.07.08.1-.16-.01-.32-.02-.48,0,.05-.01.09-.03.14-.04Z"/>
    </g>
  </g>
</svg>