<?xml version="1.0" encoding="UTF-8"?>
<svg id="Layer_2" data-name="Layer 2" xmlns="http://www.w3.org/2000/svg" viewBox="0 0 75.31 65.15">
  <defs>
    <style>
      .cls-1 {
        fill: #ffffff;
      }
    </style>
  </defs>
  <g id="OBJECTS">
    <g>
      <path class="cls-1" d="m56.48,22.34c-.71.02-1.42.03-2.13.03-.06-.06-.14-.11-.26-.12-1.29-.13-2.57-.09-3.85-.04-.07-.08-.17-.14-.32-.14-.18,0-.36,0-.55,0,0,0,0,0-.01,0-3.66-.18-7.37-2.14-9.68-4.98-2.42-2.98-3.06-6.94-3.45-10.69-.05-1.98-.09-3.97-.19-5.95-.03-.6-.89-.59-.92,0-.2,3.58-.31,7.18-.32,10.77-.26.83-.51,1.67-.75,2.51-.22.79-.45,1.57-.88,2.27-.43.7-1,1.3-1.61,1.85-2.17,1.99-5.04,3.32-7.97,3.68-.86.02-1.73.06-2.59.08-2.94-.08-5.9.14-8.77.45-.48.05-.5.73,0,.76,2.27.15,4.52.16,6.79.12,2.07-.03,4.19-.48,6.23.05,2.79.72,5.25,2.2,7.16,4.29.3.4.57.81.81,1.24,1.01,1.83,1.27,3.94,1.47,5.99.02.24.04.48.06.72,0,.14,0,.28.01.41,0,.08.02.14.04.21.06.92.11,1.85.15,2.77-.01,1.13-.03,2.26-.05,3.4,0,.01,0,.02,0,.03-.06,1.28-.07,2.57.09,3.83.07.61.91.63.96,0,.1-1.29.11-2.58.12-3.87.08-.09.13-.2.15-.34.13-1.43.13-2.88.05-4.32.12-1.39.26-2.78.35-4.17.87-3.28,2.59-6.34,5.47-8.22.94-.61,1.97-1.06,3.07-1.33.67-.16,1.35-.19,2.03-.28.58-.08,1.16-.19,1.74-.23.2-.01.41-.02.61-.03.44.03.89.06,1.33.07.27,0,.54,0,.8,0,1.63.1,3.24.23,4.88-.21.34-.09.27-.62-.08-.61Zm-25.3-2.75c.29-.22.57-.45.85-.69-.25.26-.53.5-.85.69Zm2.15.33s-.08.05-.12.07c.47-.36.88-.78,1.23-1.24-.27.46-.64.84-1.11,1.17Zm4.86,1.41s0-.03,0-.05c.02,0,.03.02.05.02-.01,0-.02.02-.04.02Zm3.71-.48s0,0,0,0c0,0,0,0,.01,0,0,0,0,0-.01,0Z"/>
      <path class="cls-1" d="m63.22,43.21c-.5.01-1.01.02-1.51.02-.04-.05-.1-.08-.18-.09-.92-.09-1.83-.06-2.74-.03-.05-.06-.12-.1-.22-.1-.13,0-.26,0-.39,0,0,0,0,0,0,0-2.59-.13-5.23-1.52-6.87-3.53-1.72-2.11-2.17-4.93-2.44-7.59-.03-1.41-.06-2.81-.14-4.22-.02-.42-.63-.42-.66,0-.14,2.54-.22,5.09-.23,7.64-.18.59-.37,1.18-.53,1.78-.16.56-.32,1.11-.63,1.61-.31.49-.71.92-1.14,1.31-1.54,1.41-3.58,2.35-5.65,2.61-.61.02-1.22.04-1.84.06-2.08-.06-4.19.1-6.23.32-.34.04-.35.52,0,.54,1.61.11,3.21.11,4.82.09,1.47-.02,2.97-.34,4.42.04,1.98.51,3.73,1.56,5.08,3.05.21.28.41.57.58.88.71,1.3.9,2.79,1.04,4.25.02.17.03.34.04.51,0,.1,0,.2,0,.29,0,.05.01.1.03.15.04.66.08,1.31.11,1.97,0,.8-.02,1.61-.04,2.41,0,0,0,.02,0,.02-.04.91-.05,1.82.06,2.72.05.43.65.45.68,0,.07-.91.08-1.83.09-2.75.05-.06.1-.14.1-.24.09-1.02.09-2.04.04-3.07.08-.99.18-1.97.25-2.96.62-2.33,1.84-4.5,3.89-5.83.67-.44,1.4-.75,2.18-.94.48-.11.96-.13,1.44-.2.41-.06.82-.14,1.24-.17.14-.01.29-.02.43-.02.31.02.63.04.95.05.19,0,.38,0,.57,0,1.15.07,2.3.16,3.46-.15.24-.06.19-.44-.06-.43Zm-17.96-1.95c.21-.15.41-.32.6-.49-.18.19-.38.35-.6.49Zm1.52.23s-.06.03-.09.05c.33-.25.63-.55.87-.88-.19.32-.46.6-.79.83Zm3.45,1s0-.02,0-.03c.01,0,.02.01.03.02,0,0-.02.01-.03.02Zm2.63-.34s0,0,0,0c0,0,0,0,0,0,0,0,0,0-.01,0Z"/>
      <path class="cls-1" d="m75.15,17.87c-.38.01-.75.01-1.12.01-.03-.03-.08-.06-.14-.06-.68-.07-1.36-.05-2.04-.02-.03-.04-.09-.08-.17-.07-.1,0-.19,0-.29,0,0,0,0,0,0,0-1.93-.09-3.9-1.13-5.12-2.63-1.28-1.57-1.62-3.67-1.82-5.65-.03-1.05-.05-2.1-.1-3.14-.02-.31-.47-.31-.49,0-.11,1.89-.17,3.79-.17,5.69-.14.44-.27.88-.39,1.32-.12.42-.24.83-.47,1.2-.23.37-.53.69-.85.98-1.15,1.05-2.66,1.75-4.21,1.95-.46.01-.91.03-1.37.04-1.55-.04-3.12.07-4.64.24-.25.03-.26.38,0,.4,1.2.08,2.39.08,3.59.06,1.1-.02,2.21-.25,3.29.03,1.47.38,2.78,1.16,3.78,2.27.16.21.3.43.43.66.53.97.67,2.08.78,3.17.01.13.02.25.03.38,0,.07,0,.15,0,.22,0,.04,0,.08.02.11.03.49.06.98.08,1.47,0,.6-.02,1.2-.03,1.79,0,0,0,.01,0,.02-.03.68-.04,1.36.05,2.03.04.32.48.33.51,0,.05-.68.06-1.36.06-2.05.04-.05.07-.1.08-.18.07-.76.07-1.52.03-2.28.06-.73.14-1.47.18-2.2.46-1.73,1.37-3.35,2.89-4.34.5-.32,1.04-.56,1.62-.7.35-.09.71-.1,1.07-.15.31-.04.61-.1.92-.12.11,0,.22-.01.32-.01.23.01.47.03.7.04.14,0,.28,0,.42,0,.86.05,1.71.12,2.58-.11.18-.05.14-.33-.04-.32Zm-13.37-1.45c.15-.11.3-.24.45-.36-.13.14-.28.26-.45.36Zm1.13.17s-.04.03-.06.04c.25-.19.47-.41.65-.66-.14.24-.34.44-.59.62Zm2.57.74s0-.02,0-.02c0,0,.02,0,.02.01,0,0-.01,0-.02.01Zm1.96-.26s0,0,0,0c0,0,0,0,0,0,0,0,0,0,0,0Z"/>
      <path class="cls-1" d="m23.57,52.47c-.38.01-.75.01-1.12.01-.03-.03-.08-.06-.14-.06-.68-.07-1.36-.05-2.04-.02-.03-.04-.09-.08-.17-.07-.1,0-.19,0-.29,0,0,0,0,0,0,0-1.93-.09-3.9-1.13-5.12-2.63-1.28-1.57-1.62-3.67-1.82-5.65-.03-1.05-.05-2.1-.1-3.14-.02-.31-.47-.31-.49,0-.11,1.89-.17,3.79-.17,5.69-.14.44-.27.88-.39,1.32-.12.42-.24.83-.47,1.2-.23.37-.53.68-.85.98-1.15,1.05-2.66,1.75-4.21,1.95-.46.01-.91.03-1.37.04-1.55-.04-3.12.07-4.64.24-.25.03-.26.38,0,.4,1.2.08,2.39.08,3.59.06,1.1-.02,2.21-.25,3.29.03,1.47.38,2.78,1.16,3.78,2.27.16.21.3.43.43.66.53.97.67,2.08.78,3.17.01.13.02.25.03.38,0,.07,0,.15,0,.22,0,.04,0,.08.02.11.03.49.06.98.08,1.47,0,.6-.02,1.2-.03,1.79,0,0,0,.01,0,.02-.03.68-.04,1.36.05,2.03.04.32.48.33.51,0,.05-.68.06-1.36.06-2.05.04-.05.07-.1.08-.18.07-.76.07-1.52.03-2.28.06-.73.14-1.47.18-2.2.46-1.73,1.37-3.35,2.89-4.34.5-.32,1.04-.56,1.62-.7.35-.09.71-.1,1.07-.15.31-.04.61-.1.92-.12.11,0,.22-.01.32-.01.23.01.47.03.7.04.14,0,.28,0,.42,0,.86.05,1.71.12,2.58-.11.18-.05.14-.33-.04-.32Zm-13.37-1.45c.15-.11.3-.24.45-.36-.13.14-.28.26-.45.36Zm1.13.17s-.04.03-.06.04c.25-.19.47-.41.65-.66-.14.24-.34.44-.59.62Zm2.57.74s0-.02,0-.02c0,0,.02,0,.02.01,0,0-.01,0-.02.01Zm1.96-.26s0,0,0,0c0,0,0,0,0,0,0,0,0,0,0,0Z"/>
    </g>
  </g>
</svg>