<?xml version="1.0" encoding="UTF-8"?>
<svg id="Layer_2" data-name="Layer 2" xmlns="http://www.w3.org/2000/svg" viewBox="0 0 68.64 71.99">
  <defs>
    <style>
      .cls-1 {
        fill: #ffffff;
      }
    </style>
  </defs>
  <g id="OBJECTS">
    <g>
      <path class="cls-1" d="m48.7,19.37c-2.91-.34-5.7-.77-8.65-.74-1.07.01-2.52.46-2.99-.79-.67-1.79.77-3.12,1.83-4.34,1.35-1.55,2.67-3.12,3.95-4.72.65-.81-.35-1.86-1.16-1.16-1.35,1.17-2.68,2.37-3.99,3.59-.83.77-1.61,1.82-2.81,1.89-2.57.15-2.4-2.78-2.49-4.55-.14-2.62-.25-5.25-.56-7.86-.08-.7-1.2-1.02-1.36-.18-.58,3.16-.82,6.29-1.03,9.5-.09,1.37-.01,3.55-1.91,3.58-1.64.03-2.95-1.58-4.07-2.55-1.3-1.12-2.61-2.21-3.95-3.28-.81-.65-1.86.35-1.16,1.16,1.45,1.68,2.95,3.32,4.47,4.94,1.14,1.21,2.49,2.65.97,4.25-1.05,1.11-2.85,1.15-4.27,1.25-1.81.13-3.62.3-5.43.5-1.03.11-1.07,1.56,0,1.63,1.91.14,3.81.23,5.72.3,1.21.04,2.92.12,3.65,1.32.28.47.3,1.06.14,1.58-.15.52-.45.99-.78,1.43-1.66,2.26-3.45,4.43-5.11,6.71-.46.63.48,1.16.99.76,1.12-.88,2.3-1.63,3.38-2.56,1.55-1.34,2.97-3.54,5.24-3.28.52.06,1.06.2,1.45.56.58.54.67,1.4.73,2.19.1,1.4.05,2.76.1,4.16.06,1.78.3,3.56.53,5.33.16,1.21,1.83,1.27,1.93,0,.25-3.42-.56-7.98,1.17-11.07.19-.34.43-.68.74-.92,1.63-1.24,3.36.21,4.59,1.21,1.6,1.3,3.32,2.47,4.98,3.69.63.46,1.16-.48.76-.99-.88-1.12-1.63-2.3-2.56-3.38-1.31-1.52-5.74-4.61-2.63-6.49,1.24-.75,3.09-.42,4.49-.59,1.76-.21,3.5-.55,5.25-.82.76-.12.47-1.16-.17-1.23Z"/>
      <path class="cls-1" d="m21.08,46.23c-1.73-.2-3.4-.46-5.15-.44-.63,0-1.5.27-1.78-.47-.4-1.07.46-1.86,1.09-2.58.8-.92,1.59-1.86,2.35-2.81.39-.48-.21-1.11-.69-.69-.81.7-1.6,1.41-2.38,2.14-.49.46-.96,1.08-1.67,1.13-1.53.09-1.43-1.66-1.49-2.71-.08-1.56-.15-3.13-.34-4.68-.05-.42-.72-.61-.81-.11-.34,1.88-.49,3.75-.61,5.66-.05.81,0,2.11-1.14,2.13-.98.02-1.75-.94-2.43-1.52-.77-.66-1.56-1.32-2.35-1.96-.48-.39-1.11.21-.69.69.87,1,1.76,1.98,2.66,2.94.68.72,1.48,1.58.58,2.53-.63.66-1.7.68-2.54.75-1.08.08-2.16.18-3.24.3-.62.07-.63.93,0,.97,1.13.08,2.27.14,3.41.18.72.02,1.74.07,2.17.78.17.28.18.63.09.94s-.27.59-.46.85c-.99,1.35-2.06,2.64-3.04,3.99-.27.37.28.69.59.45.66-.52,1.37-.97,2.01-1.52.92-.8,1.77-2.11,3.12-1.95.31.04.63.12.86.33.34.32.4.83.43,1.3.06.84.03,1.64.06,2.48.04,1.06.18,2.12.31,3.17.09.72,1.09.75,1.15,0,.15-2.04-.33-4.76.7-6.6.12-.21.25-.4.44-.55.97-.74,2,.13,2.73.72.96.78,1.97,1.47,2.97,2.2.37.27.69-.28.45-.59-.52-.66-.97-1.37-1.52-2.01-.78-.9-3.42-2.75-1.56-3.87.74-.45,1.84-.25,2.68-.35,1.05-.13,2.08-.33,3.13-.49.45-.07.28-.69-.1-.74Z"/>
      <path class="cls-1" d="m64.17,11.65c-1.22-.14-2.39-.32-3.63-.31-.45,0-1.06.19-1.26-.33-.28-.75.32-1.31.77-1.82.57-.65,1.12-1.31,1.66-1.98.27-.34-.15-.78-.48-.49-.57.49-1.13.99-1.68,1.51-.35.32-.67.76-1.18.79-1.08.06-1.01-1.17-1.05-1.91-.06-1.1-.1-2.2-.24-3.3-.04-.29-.51-.43-.57-.08-.24,1.33-.34,2.64-.43,3.99-.04.57,0,1.49-.8,1.5-.69.01-1.24-.66-1.71-1.07-.54-.47-1.1-.93-1.66-1.38-.34-.27-.78.15-.49.49.61.7,1.24,1.4,1.88,2.07.48.51,1.04,1.11.41,1.78-.44.47-1.2.48-1.79.53-.76.06-1.52.13-2.28.21-.43.05-.45.65,0,.69.8.06,1.6.1,2.4.13.51.02,1.23.05,1.53.55.12.2.12.44.06.66-.06.22-.19.42-.33.6-.7.95-1.45,1.86-2.15,2.81-.19.26.2.49.41.32.47-.37.97-.68,1.42-1.07.65-.56,1.25-1.48,2.2-1.38.22.02.45.08.61.23.24.22.28.59.3.92.04.59.02,1.16.04,1.75.03.75.12,1.49.22,2.24.07.51.77.53.81,0,.11-1.44-.23-3.35.49-4.65.08-.14.18-.28.31-.38.68-.52,1.41.09,1.92.51.67.55,1.39,1.04,2.09,1.55.26.19.49-.2.32-.41-.37-.47-.68-.97-1.07-1.42-.55-.64-2.41-1.94-1.1-2.72.52-.32,1.3-.18,1.89-.25.74-.09,1.47-.23,2.2-.34.32-.05.2-.49-.07-.52Z"/>
      <path class="cls-1" d="m68.08,52.36c-2.65-.31-5.2-.7-7.89-.68-.97,0-2.3.42-2.73-.72-.61-1.63.7-2.84,1.67-3.96,1.23-1.41,2.43-2.85,3.6-4.31.59-.74-.32-1.69-1.05-1.05-1.23,1.07-2.45,2.16-3.64,3.27-.75.7-1.47,1.66-2.56,1.72-2.34.14-2.19-2.54-2.28-4.15-.13-2.39-.23-4.79-.51-7.17-.08-.64-1.1-.93-1.24-.17-.53,2.89-.75,5.74-.94,8.67-.08,1.25-.01,3.24-1.74,3.26-1.49.02-2.69-1.44-3.71-2.33-1.18-1.02-2.38-2.02-3.6-2.99-.74-.59-1.69.32-1.05,1.05,1.33,1.53,2.69,3.03,4.08,4.5,1.04,1.1,2.27,2.42.89,3.87-.96,1.01-2.6,1.05-3.89,1.14-1.65.12-3.31.27-4.95.45-.94.1-.97,1.42,0,1.49,1.74.12,3.48.21,5.22.27,1.1.04,2.67.11,3.33,1.2.26.42.27.97.13,1.44-.14.48-.41.9-.71,1.3-1.52,2.06-3.15,4.04-4.66,6.11-.42.57.44,1.06.9.69,1.02-.8,2.1-1.48,3.08-2.33,1.41-1.22,2.71-3.22,4.78-2.99.48.05.97.18,1.32.51.53.49.61,1.28.66,1.99.09,1.28.05,2.52.09,3.8.06,1.63.27,3.24.48,4.86.14,1.1,1.67,1.16,1.76,0,.23-3.12-.51-7.28,1.07-10.1.18-.31.39-.62.68-.83,1.49-1.14,3.07.19,4.18,1.1,1.46,1.19,3.02,2.25,4.55,3.36.57.42,1.06-.44.69-.9-.8-1.02-1.48-2.1-2.33-3.08-1.2-1.39-5.23-4.21-2.39-5.92,1.13-.69,2.82-.38,4.1-.53,1.6-.19,3.19-.5,4.79-.75.69-.11.43-1.06-.15-1.13Z"/>
    </g>
  </g>
</svg>