<?xml version="1.0" encoding="UTF-8"?>
<svg id="Layer_2" data-name="Layer 2" xmlns="http://www.w3.org/2000/svg" viewBox="0 0 81.26 84.07">
  <defs>
    <style>
      .cls-1 {
        fill: #ffffff;
      }
    </style>
  </defs>
  <g id="OBJECTS">
    <g>
      <path class="cls-1" d="m73.61,32.41c-3.51-.14-7.08-.08-10.58.06-3.31.13-6.62.16-9.94.2-.05-.06-.13-.11-.24-.11-.08,0-.14.03-.19.07-.03-.07-.07-.14-.14-.17-.76-.36-1.41-1.01-1.69-1.81-.21-.59-.28-1.28-.18-1.93,1.57-1.82,3.14-3.63,4.74-5.42,2.57-2.88,5.16-5.73,7.78-8.55.22-.24-.13-.59-.36-.36-4.3,4.44-8.53,8.94-12.79,13.42-.75.38-1.74.34-2.46-.06-.63-.34-1.07-.91-1.37-1.56,0-2.06-.02-4.13-.02-6.19,0-3.74.03-7.48.07-11.22,0-.56-.85-.56-.87,0-.17,5.65-.32,11.3-.42,16.95-.43,1.08-1.22,1.99-2.36,2.39-.74.26-1.53.32-2.29.1,0,0,0,0,0,0-1.35-1.21-2.71-2.42-4.06-3.63-2.85-2.56-5.72-5.09-8.6-7.62-.33-.29-.82.19-.49.49,4.22,3.9,8.4,7.85,12.56,11.83.2.84.15,1.7-.24,2.51-.09.19-.2.36-.33.52,0,0-.01.02-.02.03-.16.2-.34.37-.54.52-.15.11-.31.19-.48.26-2.16.1-4.32.2-6.48.29-3.97.18-7.94.32-11.9.46-.39.01-.39.62,0,.61,6.2-.12,12.4-.16,18.6-.24.65.21,1.21.67,1.55,1.27.02.17.09.32.2.45.41,1.23.04,2.57-.61,3.65-1.41,1.68-2.82,3.37-4.23,5.06-2.45,2.95-4.92,5.87-7.35,8.83-.32.39.23.96.56.56,3.84-4.59,7.73-9.12,11.75-13.55.09,0,.18-.04.24-.14.17-.26.33-.5.59-.68.26-.17.55-.28.86-.32.66-.09,1.3.18,1.78.62.54.49.88,1.17,1.07,1.87.05.19.1.39.13.58.02,1.97.04,3.94.08,5.91.08,3.74.23,7.48.39,11.22.03.78,1.23.79,1.22,0-.06-5.7-.15-11.4-.23-17.1.12-.77.38-1.51.85-2.12.24-.24.48-.48.72-.71.44-.31.94-.48,1.49-.47.28,0,.55.08.82.17,2.13,1.96,4.25,3.92,6.34,5.92,2.75,2.64,5.48,5.29,8.19,7.96.41.4,1.03-.22.63-.63-4.61-4.68-9.26-9.33-13.91-13.97-.46-.96-.53-2.09-.06-3.08.24-.51.61-.95,1.06-1.29.17-.13.36-.25.54-.36,2.9-.13,5.8-.28,8.7-.32,3.96-.05,7.96-.16,11.9-.53.41-.04.43-.64,0-.65Zm-23.65-2.44s0-.02-.01-.03c0-.01.01-.02.01-.04,0,.02,0,.04,0,.06Zm.01-.43s0-.02,0-.02c0,0,0,0,.01-.01,0,.01,0,.03,0,.04Z"/>
      <path class="cls-1" d="m81.19,12.12c-.82-.03-1.65-.02-2.47.01-.77.03-1.54.04-2.32.05-.01-.01-.03-.02-.06-.02-.02,0-.03,0-.05.02,0-.02-.02-.03-.03-.04-.18-.08-.33-.24-.39-.42-.05-.14-.06-.3-.04-.45.37-.42.73-.85,1.1-1.26.6-.67,1.2-1.34,1.81-1.99.05-.06-.03-.14-.08-.08-1,1.03-1.99,2.08-2.98,3.13-.17.09-.41.08-.57-.01-.15-.08-.25-.21-.32-.36,0-.48,0-.96,0-1.44,0-.87,0-1.74.02-2.61,0-.13-.2-.13-.2,0-.04,1.32-.07,2.63-.1,3.95-.1.25-.29.46-.55.56-.17.06-.36.08-.53.02,0,0,0,0,0,0-.32-.28-.63-.56-.95-.85-.66-.6-1.33-1.19-2-1.78-.08-.07-.19.04-.11.11.98.91,1.96,1.83,2.93,2.76.05.2.03.4-.06.59-.02.04-.05.08-.08.12,0,0,0,0,0,0-.04.05-.08.09-.13.12-.04.02-.07.04-.11.06-.5.02-1.01.05-1.51.07-.92.04-1.85.08-2.77.11-.09,0-.09.14,0,.14,1.45-.03,2.89-.04,4.34-.05.15.05.28.16.36.3,0,.04.02.07.05.1.1.29,0,.6-.14.85-.33.39-.66.79-.99,1.18-.57.69-1.15,1.37-1.71,2.06-.08.09.05.22.13.13.89-1.07,1.8-2.13,2.74-3.16.02,0,.04-.01.06-.03.04-.06.08-.12.14-.16.06-.04.13-.07.2-.08.15-.02.3.04.42.14.13.11.2.27.25.43.01.04.02.09.03.14,0,.46,0,.92.02,1.38.02.87.05,1.74.09,2.61,0,.18.29.18.28,0-.01-1.33-.03-2.66-.05-3.99.03-.18.09-.35.2-.49.06-.06.11-.11.17-.17.1-.07.22-.11.35-.11.07,0,.13.02.19.04.5.46.99.91,1.48,1.38.64.61,1.28,1.23,1.91,1.85.1.09.24-.05.15-.15-1.07-1.09-2.16-2.17-3.24-3.26-.11-.22-.12-.49-.01-.72.06-.12.14-.22.25-.3.04-.03.08-.06.13-.08.68-.03,1.35-.07,2.03-.08.92-.01,1.86-.04,2.77-.12.1,0,.1-.15,0-.15Zm-5.51-.57s0,0,0,0c0,0,0,0,0,0,0,0,0,0,0,.01Zm0-.1s0,0,0,0c0,0,0,0,0,0,0,0,0,0,0,0Z"/>
      <path class="cls-1" d="m32.8,70.89c-1.18-.05-2.39-.03-3.57.02-1.12.05-2.23.05-3.35.07-.02-.02-.04-.04-.08-.04-.03,0-.05.01-.07.02,0-.02-.02-.05-.05-.06-.26-.12-.47-.34-.57-.61-.07-.2-.09-.43-.06-.65.53-.61,1.06-1.22,1.6-1.83.87-.97,1.74-1.93,2.62-2.88.07-.08-.04-.2-.12-.12-1.45,1.5-2.88,3.02-4.31,4.53-.25.13-.59.11-.83-.02-.21-.12-.36-.31-.46-.53,0-.7,0-1.39,0-2.09,0-1.26,0-2.52.02-3.78,0-.19-.29-.19-.29,0-.06,1.9-.11,3.81-.14,5.72-.15.36-.41.67-.79.8-.25.09-.52.11-.77.03,0,0,0,0,0,0-.46-.41-.91-.82-1.37-1.22-.96-.86-1.93-1.72-2.9-2.57-.11-.1-.28.06-.17.17,1.42,1.32,2.83,2.65,4.23,3.99.07.28.05.57-.08.85-.03.06-.07.12-.11.18,0,0,0,0,0,0-.05.07-.11.13-.18.17-.05.04-.11.06-.16.09-.73.03-1.46.07-2.18.1-1.34.06-2.68.11-4.01.16-.13,0-.13.21,0,.21,2.09-.04,4.18-.05,6.27-.08.22.07.41.23.52.43,0,.06.03.11.07.15.14.41.01.87-.2,1.23-.48.57-.95,1.14-1.43,1.71-.83.99-1.66,1.98-2.48,2.98-.11.13.08.32.19.19,1.29-1.55,2.61-3.08,3.96-4.57.03,0,.06-.02.08-.05.06-.09.11-.17.2-.23.09-.06.19-.1.29-.11.22-.03.44.06.6.21.18.16.3.39.36.63.02.06.03.13.04.2,0,.66.01,1.33.03,1.99.03,1.26.08,2.52.13,3.78.01.26.42.27.41,0-.02-1.92-.05-3.84-.08-5.77.04-.26.13-.51.29-.72.08-.08.16-.16.24-.24.15-.1.32-.16.5-.16.1,0,.19.03.28.06.72.66,1.43,1.32,2.14,2,.93.89,1.85,1.78,2.76,2.68.14.14.35-.07.21-.21-1.55-1.58-3.12-3.14-4.69-4.71-.15-.32-.18-.7-.02-1.04.08-.17.2-.32.36-.43.06-.04.12-.08.18-.12.98-.04,1.96-.1,2.93-.11,1.33-.02,2.69-.06,4.01-.18.14-.01.14-.21,0-.22Zm-7.98-.82s0,0,0,0c0,0,0,0,0-.01,0,0,0,.01,0,.02Zm0-.15s0,0,0,0c0,0,0,0,0,0,0,0,0,0,0,.01Z"/>
      <path class="cls-1" d="m26.25,11.65c-1.7-.07-3.43-.04-5.13.03-1.6.06-3.21.08-4.81.1-.02-.03-.06-.05-.11-.05-.04,0-.07.01-.09.03-.01-.03-.04-.07-.07-.08-.37-.17-.68-.49-.82-.88-.1-.29-.13-.62-.09-.94.76-.88,1.52-1.76,2.29-2.62,1.24-1.39,2.5-2.77,3.77-4.14.11-.12-.06-.29-.17-.17-2.08,2.15-4.13,4.33-6.19,6.5-.36.18-.84.16-1.19-.03-.3-.17-.52-.44-.66-.76,0-1-.01-2-.01-3,0-1.81.01-3.62.04-5.43,0-.27-.41-.27-.42,0-.08,2.74-.16,5.47-.2,8.21-.21.52-.59.97-1.14,1.16-.36.13-.74.16-1.11.05,0,0,0,0,0,0-.66-.59-1.31-1.17-1.97-1.76-1.38-1.24-2.77-2.47-4.16-3.69-.16-.14-.4.09-.24.24,2.04,1.89,4.07,3.8,6.08,5.73.1.41.07.83-.12,1.22-.04.09-.1.18-.16.25,0,0,0,0,0,.01-.08.09-.16.18-.26.25-.07.05-.15.09-.23.13-1.05.05-2.09.09-3.14.14-1.92.09-3.84.16-5.77.22-.19,0-.19.3,0,.3,3-.06,6.01-.08,9.01-.11.31.1.59.32.75.62,0,.08.04.15.1.22.2.6.02,1.25-.29,1.77-.68.81-1.37,1.63-2.05,2.45-1.19,1.43-2.38,2.84-3.56,4.28-.16.19.11.46.27.27,1.86-2.22,3.75-4.42,5.69-6.56.04,0,.09-.02.12-.07.08-.13.16-.24.29-.33.12-.08.27-.14.42-.16.32-.04.63.09.86.3.26.24.43.57.52.9.03.09.05.19.06.28,0,.95.02,1.91.04,2.86.04,1.81.11,3.62.19,5.43.02.38.6.38.59,0-.03-2.76-.07-5.52-.11-8.28.06-.37.19-.73.41-1.03.12-.12.23-.23.35-.34.21-.15.46-.23.72-.23.14,0,.27.04.4.08,1.03.95,2.06,1.9,3.07,2.87,1.33,1.28,2.65,2.56,3.97,3.85.2.19.5-.11.31-.31-2.23-2.27-4.49-4.52-6.74-6.76-.22-.47-.26-1.01-.03-1.49.12-.24.29-.46.51-.62.08-.06.17-.12.26-.18,1.4-.06,2.81-.14,4.21-.16,1.92-.03,3.86-.08,5.77-.26.2-.02.21-.31,0-.32Zm-11.46-1.18s0,0,0-.01c0,0,0-.01,0-.02,0,.01,0,.02,0,.03Zm0-.21s0,0,0-.01c0,0,0,0,0,0,0,0,0,.01,0,.02Z"/>
      <path class="cls-1" d="m78.33,70.61c-1.7-.07-3.43-.04-5.13.03-1.6.06-3.21.08-4.81.1-.02-.03-.06-.05-.11-.05-.04,0-.07.01-.09.03-.01-.03-.04-.07-.07-.08-.37-.17-.68-.49-.82-.88-.1-.29-.13-.62-.09-.94.76-.88,1.52-1.76,2.29-2.62,1.24-1.39,2.5-2.77,3.77-4.14.11-.12-.06-.29-.17-.17-2.08,2.15-4.13,4.33-6.19,6.5-.36.18-.84.16-1.19-.03-.3-.17-.52-.44-.66-.76,0-1-.01-2-.01-3,0-1.81.01-3.62.04-5.43,0-.27-.41-.27-.42,0-.08,2.74-.16,5.47-.2,8.21-.21.52-.59.97-1.14,1.16-.36.13-.74.16-1.11.05,0,0,0,0,0,0-.66-.59-1.31-1.17-1.97-1.76-1.38-1.24-2.77-2.47-4.16-3.69-.16-.14-.4.09-.24.24,2.04,1.89,4.07,3.8,6.08,5.73.1.41.07.83-.12,1.22-.04.09-.1.18-.16.25,0,0,0,0,0,.01-.08.09-.16.18-.26.25-.07.05-.15.09-.23.13-1.05.05-2.09.09-3.14.14-1.92.09-3.84.16-5.77.22-.19,0-.19.3,0,.3,3-.06,6.01-.08,9.01-.11.31.1.59.32.75.62,0,.08.04.15.1.22.2.6.02,1.25-.29,1.77-.68.81-1.37,1.63-2.05,2.45-1.19,1.43-2.38,2.84-3.56,4.28-.16.19.11.46.27.27,1.86-2.22,3.75-4.42,5.69-6.56.04,0,.09-.02.12-.07.08-.13.16-.24.29-.33.12-.08.27-.14.42-.16.32-.04.63.09.86.3.26.24.42.57.52.9.03.09.05.19.06.28,0,.95.02,1.91.04,2.86.04,1.81.11,3.62.19,5.43.02.38.6.38.59,0-.03-2.76-.07-5.52-.11-8.28.06-.37.19-.73.41-1.03.12-.12.23-.23.35-.34.21-.15.46-.23.72-.23.14,0,.27.04.4.08,1.03.95,2.06,1.9,3.07,2.87,1.33,1.28,2.65,2.56,3.97,3.85.2.19.5-.11.31-.31-2.23-2.27-4.49-4.52-6.74-6.76-.22-.47-.26-1.01-.03-1.49.12-.24.29-.46.51-.62.08-.06.17-.12.26-.18,1.4-.06,2.81-.14,4.21-.16,1.92-.03,3.86-.08,5.77-.26.2-.02.21-.31,0-.32Zm-11.46-1.18s0,0,0-.01c0,0,0-.01,0-.02,0,.01,0,.02,0,.03Zm0-.21s0,0,0-.01c0,0,0,0,0,0,0,0,0,.01,0,.02Z"/>
    </g>
  </g>
</svg>