<?xml version="1.0" encoding="UTF-8"?>
<svg id="Layer_2" data-name="Layer 2" xmlns="http://www.w3.org/2000/svg" viewBox="0 0 78.2 90.02">
  <defs>
    <style>
      .cls-1 {
        fill: #ffffff;
      }
    </style>
  </defs>
  <g id="OBJECTS">
    <g>
      <path class="cls-1" d="m40.95,33.72c1.43.81,2.85,1.63,4.28,2.44.61.35,1.11-.55.54-.93-1.14-.76-2.29-1.52-3.43-2.28,1.34-.08,2.69-.16,4.03-.18,2.4-.03,4.81-.02,7.21-.11,4.8-.19,9.61-.18,14.42-.34.83-.03.83-1.25,0-1.29-4.81-.19-9.62-.25-14.42-.57-2.4-.16-4.81-.22-7.21-.34-1.76-.08-3.5-.29-5.25-.45.74-.75,1.48-1.49,2.23-2.23,1.12-1.11,2.24-2.22,3.36-3.34.46-.46-.23-1.13-.71-.71l-3.57,3.12c-.52.45-1.03.91-1.55,1.37-.17-4.27-.52-8.54-.76-12.76-.28-4.88-.41-9.77-.6-14.65-.03-.66-1.01-.67-1.03,0-.14,4.28-.26,8.56-.41,12.84-.15,4.29-.57,8.56-.7,12.84-.01.35-.01.7-.02,1.04-.16-.16-.32-.32-.48-.49-.88-.88-1.8-1.73-2.7-2.59-.12-.11-.33.04-.23.18.71,1.01,1.39,2.04,2.12,3.04.41.57.84,1.14,1.26,1.7,0,.16,0,.31,0,.47-1.78.08-3.56.34-5.34.39-2.4.08-4.81.03-7.21.04-4.8.02-9.61.05-14.41-.06-.58-.01-.57.85,0,.89,4.81.3,9.61.7,14.41,1.04,2.4.17,4.81.28,7.21.48,1.45.12,2.89.37,4.33.55-.95,1.14-1.9,2.26-2.86,3.39-.19.22-.21.54,0,.75.2.2.55.21.75,0,1.05-1.12,2.1-2.23,3.16-3.34.04,1.86.12,3.73.25,5.59.15,2.11.49,4.2.63,6.31.14,2.18.19,4.36.2,6.53.04,4.88.02,9.77.22,14.65.03.74,1.13.75,1.16,0,.29-8.55-.33-17.17.7-25.69.29-2.43.42-4.88.45-7.34Z"/>
      <path class="cls-1" d="m77.84,65.15c-4.87-.74-9.79-1.33-14.7-1.79.3-.26.59-.52.89-.78.82-.73,1.58-1.54,2.26-2.41.14-.18.18-.42,0-.6-.15-.15-.45-.17-.6,0-.7.81-1.47,1.57-2.3,2.25-.45.37-.95.68-1.47.97-.19-5.98-.57-11.95-.38-17.94.02-.69-1.02-.68-1.06,0-.38,6-1.15,11.98-1.54,17.99-.24-.21-.48-.43-.72-.64-.72-.63-1.36-1.34-2.01-2.03-.34-.36-.87.18-.54.54.63.7,1.28,1.38,1.85,2.14.16.21.32.42.48.63-.01,0-.02,0-.03,0-1.36.29-2.78.29-4.16.39-2.81.2-5.62.48-8.42.79-.41.04-.43.67,0,.65,2.66-.12,5.31-.15,7.98-.11,1.32.02,2.68-.02,3.99.16.43.06.85.19,1.26.31-.36.39-.7.79-1.02,1.22-.62.83-1.21,1.68-1.75,2.56-.26.43.39.96.71.55.64-.8,1.31-1.57,2.03-2.29.05-.05.1-.1.15-.15-.04,3.6.65,7.09.88,10.68.24,3.75.29,7.52.46,11.28.03.68,1.07.69,1.06,0-.05-3.76-.15-7.52,0-11.28.15-3.71.89-7.33.86-11.05,0-.16,0-.32,0-.48,1.29,1.06,2.58,2.14,3.92,3.15.29.22.63-.25.39-.5-1.18-1.23-2.41-2.4-3.63-3.58,5.04-.18,10.01-.06,15.04.37.56.05.69-.9.13-.99Z"/>
      <path class="cls-1" d="m21.92,55.21c-1.83-.19-3.67-.31-5.5-.48-.89-.08-1.79-.21-2.7-.32.92-1.05,1.84-2.09,2.81-3.1.3-.31-.16-.76-.47-.47-1.01.95-2.02,1.93-3.01,2.92-.16-1.26-.39-2.51-.47-3.77-.13-2.15-.04-4.33,0-6.48.01-.51-.76-.5-.79,0-.15,2.08-.21,4.18-.41,6.26-.13,1.33-.41,2.67-.58,4.01-.63-.7-1.26-1.41-1.91-2.09-.37-.38-.94.19-.58.58.62.67,1.22,1.37,1.82,2.06-1.44.17-2.87.55-4.3.71-1.83.2-3.67.3-5.5.45-.45.04-.46.71,0,.71,1.83,0,3.67-.02,5.5.08,1.46.08,2.92.43,4.38.55-.16.19-.33.37-.49.56-.68.81-1.24,1.71-1.9,2.54-.3.37.23.91.53.53.64-.8,1.39-1.49,2.05-2.27.13-.15.26-.3.4-.45.19,1.59.49,3.17.62,4.77.18,2.16.38,4.31.51,6.48.03.56.91.56.88,0-.13-2.1-.15-4.16-.12-6.26.02-1.63.24-3.23.39-4.84.53.71,1.05,1.43,1.61,2.11.43.53,1.37-.18.95-.74-.66-.89-1.41-1.72-2.16-2.55.98-.11,1.96-.26,2.94-.33,1.83-.14,3.67-.2,5.5-.3.58-.03.56-.83,0-.89Z"/>
    </g>
  </g>
</svg>