<?xml version="1.0" encoding="UTF-8"?>
<svg id="Layer_2" data-name="Layer 2" xmlns="http://www.w3.org/2000/svg" viewBox="0 0 82.78 74.63">
  <defs>
    <style>
      .cls-1 {
        fill: #ffffff;
      }
    </style>
  </defs>
  <g id="OBJECTS">
    <g>
      <path class="cls-1" d="m28.91.53c-.14,4.83-.57,9.63-.89,14.45s-.5,9.61-.5,14.45.72,9.61.89,14.45.35,9.63.59,14.45c.05.91,1.4.92,1.42,0,.13-4.81.21-9.63.3-14.45s.75-9.6.71-14.45-.25-9.62-.58-14.45-.74-9.62-.86-14.45c-.02-.7-1.07-.7-1.09,0h0Z"/>
      <path class="cls-1" d="m58.47,28.75c-4.83-.14-9.63-.57-14.45-.89s-9.61-.5-14.45-.5-9.61.72-14.45.89-9.63.35-14.45.59c-.91.05-.92,1.4,0,1.42,4.81.13,9.63.21,14.45.3s9.6.75,14.45.71,9.62-.25,14.45-.58,9.62-.74,14.45-.86c.7-.02.7-1.07,0-1.09h0Z"/>
      <path class="cls-1" d="m42.79,15.32c-2.39,2.19-4.94,4.15-7.45,6.2s-4.89,4.17-7.19,6.47c-1.12,1.12-2.17,2.26-3.16,3.5s-1.84,2.58-2.9,3.76c-2.21,2.46-4.44,4.9-6.61,7.4-.6.69.32,1.63,1.01,1.01,2.38-2.17,4.72-4.38,7.07-6.58,1.16-1.09,2.47-1.95,3.7-2.95,1.29-1.05,2.49-2.16,3.65-3.35,2.21-2.26,4.27-4.58,6.27-7.03,2.1-2.57,4.11-5.19,6.38-7.63.48-.52-.25-1.25-.77-.77h0Z"/>
      <path class="cls-1" d="m43.68,42.63c-2.19-2.39-4.15-4.94-6.2-7.45s-4.17-4.89-6.47-7.19c-1.12-1.12-2.26-2.17-3.5-3.16s-2.58-1.84-3.76-2.9c-2.46-2.21-4.9-4.44-7.4-6.61-.69-.6-1.63.32-1.01,1.01,2.17,2.38,4.38,4.72,6.58,7.07,1.09,1.16,1.95,2.47,2.95,3.7,1.05,1.29,2.16,2.49,3.35,3.65,2.26,2.21,4.58,4.27,7.03,6.27,2.57,2.1,5.19,4.11,7.63,6.38.52.48,1.25-.25.77-.77h0Z"/>
      <path class="cls-1" d="m62.08,34.86c-.28,6.54-1.39,12.98-1.4,19.54,0,1.58.06,3.13.24,4.7.18,1.66.54,3.28.62,4.95.16,3.3.32,6.6.55,9.89.06.91,1.38.92,1.42,0,.15-3.3.25-6.59.35-9.89.05-1.58.37-3.12.53-4.7.17-1.66.23-3.28.21-4.95-.07-6.56-1.18-13-1.43-19.54-.03-.7-1.06-.7-1.09,0h0Z"/>
      <path class="cls-1" d="m82.25,53.77c-6.54-.28-12.98-1.39-19.54-1.4-1.58,0-3.13.06-4.7.24-1.66.18-3.28.54-4.95.62-3.3.16-6.6.32-9.89.55-.91.06-.92,1.38,0,1.42,3.3.15,6.59.25,9.89.35,1.58.05,3.12.37,4.7.53,1.66.17,3.28.23,4.95.21,6.56-.07,13-1.18,19.54-1.43.7-.03.7-1.06,0-1.09h0Z"/>
      <path class="cls-1" d="m71.52,44.74c-1.64,1.44-3.43,2.63-5.17,3.93s-3.46,2.73-5.06,4.31c-.77.77-1.46,1.56-2.11,2.44s-1.14,1.87-1.85,2.71c-1.43,1.69-2.91,3.34-4.32,5.05-.58.7.31,1.61,1.01,1.01,1.63-1.41,3.22-2.85,4.82-4.29.82-.74,1.78-1.24,2.67-1.9s1.75-1.42,2.56-2.24c1.53-1.57,2.87-3.19,4.18-4.94s2.56-3.63,4.05-5.3c.47-.53-.24-1.24-.77-.77h0Z"/>
      <path class="cls-1" d="m72.37,63.21c-1.44-1.64-2.63-3.43-3.93-5.17s-2.73-3.46-4.31-5.06c-.77-.77-1.56-1.46-2.44-2.11s-1.87-1.14-2.71-1.85c-1.69-1.43-3.34-2.91-5.05-4.32-.7-.58-1.61.31-1.01,1.01,1.41,1.63,2.85,3.22,4.29,4.82.74.82,1.24,1.78,1.9,2.67s1.42,1.75,2.24,2.56c1.57,1.53,3.19,2.87,4.94,4.18s3.63,2.56,5.3,4.05c.53.47,1.24-.24.77-.77h0Z"/>
    </g>
  </g>
</svg>