<?xml version="1.0" encoding="UTF-8"?>
<svg id="Layer_2" data-name="Layer 2" xmlns="http://www.w3.org/2000/svg" viewBox="0 0 64.22 57.04">
  <defs>
    <style>
      .cls-1 {
        fill: #ffffff;
      }
    </style>
  </defs>
  <g id="OBJECTS">
    <g>
      <path class="cls-1" d="m48.49,25.31c-4.78-.27-8.8-3.81-11.99-7.08-3.18-3.25-5.86-7.16-7.05-11.59-.02-.06-.05-.1-.1-.12-.13-.09-.34-.07-.4.12-1.3,4.34-3.89,8.2-7.23,11.24-1.77,1.62-3.73,3.04-5.76,4.31-2,1.25-4.16,2.61-6.39,3.39-.46.16-.16.86.26.61.04-.02.09-.05.13-.07,3.2,1.39,6.3,2.92,9.05,5.1,2.8,2.22,5.27,4.94,7.12,8,1.07,1.78,1.86,3.66,2.56,5.61.2.56,1.08.34.91-.25,0-.03-.02-.05-.03-.08,2.26-8.89,9.79-16.6,18.85-18.52.02,0,.04,0,.06,0,.44.03.44-.67,0-.69Z"/>
      <path class="cls-1" d="m64.07,14.32c-2.26-.13-4.17-1.81-5.68-3.35-1.5-1.54-2.77-3.39-3.34-5.49,0-.03-.03-.05-.05-.06-.06-.04-.16-.03-.19.06-.61,2.06-1.84,3.88-3.42,5.32-.84.77-1.77,1.44-2.73,2.04-.95.59-1.97,1.24-3.03,1.61-.22.08-.08.41.12.29.02-.01.04-.02.06-.03,1.52.66,2.98,1.38,4.29,2.42,1.33,1.05,2.5,2.34,3.37,3.79.51.84.88,1.73,1.21,2.66.1.27.51.16.43-.12,0-.01,0-.03-.01-.04,1.07-4.21,4.63-7.86,8.92-8.77,0,0,.02,0,.03,0,.21.01.21-.31,0-.33Z"/>
      <path class="cls-1" d="m16.9,7.09c-1.8-.1-3.31-1.44-4.51-2.67-1.2-1.22-2.2-2.69-2.65-4.36,0-.02-.02-.04-.04-.04-.05-.03-.13-.03-.15.05-.49,1.63-1.47,3.09-2.72,4.23-.67.61-1.4,1.14-2.17,1.62-.75.47-1.57.98-2.41,1.28-.17.06-.06.32.1.23.02,0,.03-.02.05-.03,1.2.52,2.37,1.1,3.41,1.92,1.05.84,1.98,1.86,2.68,3.01.4.67.7,1.38.97,2.11.08.21.41.13.34-.09,0-.01,0-.02,0-.03.85-3.35,3.68-6.25,7.09-6.97,0,0,.01,0,.02,0,.17.01.17-.25,0-.26Z"/>
      <path class="cls-1" d="m52.43,39.98c-1.23-.07-2.26-.98-3.08-1.82-.82-.84-1.5-1.84-1.81-2.97,0-.02-.01-.03-.03-.03-.03-.02-.09-.02-.1.03-.33,1.11-1,2.1-1.85,2.89-.45.41-.96.78-1.48,1.11-.51.32-1.07.67-1.64.87-.12.04-.04.22.07.16.01,0,.02-.01.03-.02.82.36,1.62.75,2.32,1.31.72.57,1.35,1.27,1.83,2.05.28.46.48.94.66,1.44.05.14.28.09.23-.06,0,0,0-.01,0-.02.58-2.28,2.51-4.26,4.84-4.75,0,0,0,0,.01,0,.11,0,.11-.17,0-.18Z"/>
      <path class="cls-1" d="m42.34,52.01c-.61-.04-1.13-.49-1.54-.91-.41-.42-.75-.92-.9-1.49,0,0,0-.01-.01-.02-.02-.01-.04,0-.05.02-.17.56-.5,1.05-.93,1.44-.23.21-.48.39-.74.55-.26.16-.53.34-.82.44-.06.02-.02.11.03.08,0,0,.01,0,.02,0,.41.18.81.37,1.16.65.36.29.68.63.91,1.03.14.23.24.47.33.72.03.07.14.04.12-.03,0,0,0,0,0-.01.29-1.14,1.26-2.13,2.42-2.38,0,0,0,0,0,0,.06,0,.06-.09,0-.09Z"/>
      <path class="cls-1" d="m18.53,47.64c-2.26-.13-4.17-1.81-5.68-3.35-1.5-1.54-2.77-3.39-3.34-5.49,0-.03-.03-.05-.05-.06-.06-.04-.16-.03-.19.06-.61,2.06-1.84,3.88-3.42,5.32-.84.77-1.77,1.44-2.73,2.04-.95.59-1.97,1.24-3.03,1.61-.22.08-.08.41.12.29.02-.01.04-.02.06-.03,1.52.66,2.98,1.38,4.29,2.42,1.33,1.05,2.5,2.34,3.37,3.79.51.84.88,1.73,1.21,2.66.1.27.51.16.43-.12,0-.01,0-.03-.01-.04,1.07-4.21,4.63-7.86,8.92-8.77,0,0,.02,0,.03,0,.21.01.21-.32,0-.33Z"/>
    </g>
  </g>
</svg>