<?xml version="1.0" encoding="UTF-8"?>
<svg id="Layer_2" data-name="Layer 2" xmlns="http://www.w3.org/2000/svg" viewBox="0 0 71.39 73.05">
  <defs>
    <style>
      .cls-1 {
        fill: #ffffff;
      }
    </style>
  </defs>
  <g id="OBJECTS">
    <g>
      <path class="cls-1" d="m70.81,58.53c-2.65.06-5.56-.56-7.61-2.3,0,0,0,0,0,0,.07-.09.15-.17.24-.25.17-.16.34-.31.5-.47.34-.31.67-.62,1.01-.93.67-.62,1.3-1.29,1.94-1.93.21-.21-.07-.6-.33-.43-.76.5-1.53.98-2.27,1.51-.37.27-.74.53-1.11.8-.18.13-.37.27-.55.4-.09.07-.19.12-.29.18-.05.03-.1.05-.15.08-.11-.15-.24-.28-.35-.43-2.08-3.13-1.59-6.89-1.99-10.43-.08-.74-1.05-.73-1.14,0-.15,1.15-.18,2.36-.11,3.58-.35,2.58-.94,5.15-2.56,7.14-.63-.59-1.19-1.24-1.8-1.84l-2.03-2c-.26-.26-.77.09-.53.41.57.75,1.14,1.5,1.71,2.24.56.73,1.18,1.41,1.71,2.17-.03.03-.05.05-.08.08-2.21,1.9-4.78,2.04-7.51,2.36-.75.09-.79,1.26,0,1.2,2.42-.18,5.05.74,7.01,2.31-.14.17-.29.34-.43.52-.31.4-.59.81-.89,1.22-.57.79-1.19,1.53-1.82,2.27-.17.2-.2.5,0,.7.18.18.52.2.7,0,.32-.37.65-.74.97-1.12.32-.37.67-.72,1.02-1.07.34-.34.68-.67,1.01-1.01.17-.17.32-.35.47-.53.16.17.33.34.47.53,1.41,1.82,2.11,4.12,2.33,6.43-.03.82-.01,1.63.07,2.4.1.95,1.48,1,1.51,0,.02-.69-.02-1.38-.1-2.06.01-2.24.46-4.55,1.66-6.4,1.28,1.32,2.74,2.47,4.31,3.42.5.3.92-.45.45-.77-.81-.55-1.54-1.16-2.22-1.87-.62-.65-1.11-1.27-1.6-1.99,2.15-2.26,5.29-3.05,8.36-2.91.79-.02.78-1.18,0-1.22Zm-9.97,3.91c-.91,1.13-1.54,2.53-1.94,4.02-.63-1.6-1.54-3.07-2.67-4.3.13-.28.12-.61-.12-.84-.22-.2-.59-.27-.86-.13-1.04-.9-2.21-1.63-3.52-2.1,1.5-.35,2.9-.95,4.18-2.12,1.82-1.67,2.68-3.82,3.13-6.11.43,1.86,1.16,3.63,2.3,5.09.1.13.22.24.33.36.03.06.03.12.07.17.07.09.17.16.28.21,1.12,1.12,2.51,1.89,4.01,2.37-1.98.58-3.79,1.64-5.18,3.37Z"/>
      <path class="cls-1" d="m24.85,53.91c-1.72.03-3.62-.36-4.92-1.53.2-.22.38-.46.58-.68.22-.25.43-.51.63-.77.17-.24.34-.48.48-.74.16-.3.22-.62.25-.95.02-.2-.23-.26-.36-.15-.22.19-.45.37-.63.6-.03.04-.06.08-.09.12.03-.04,0,0-.01.01-.05.06-.09.11-.14.17-.09.11-.19.22-.29.33-.19.2-.4.4-.61.58,0,0-.02.02-.04.03-.02.01-.05.03-.06.04-.06.04-.12.08-.18.12-.12.08-.25.15-.38.22-.01,0-.02.02-.02.02-1.19-2.03-.75-4.38-1.15-6.59-.1-.55-.99-.54-1.1,0-.18.94-.22,1.97-.11,2.99-.22,1.29-.58,2.53-1.3,3.58-.63-.53-1.22-1.09-1.79-1.68-.67-.67-1.34-1.35-2-2.02-.45-.45-1.13.24-.7.7.64.68,1.29,1.36,1.93,2.04.6.63,1.19,1.26,1.71,1.95-.02.02-.03.03-.05.05-1.41,1.22-3.05,1.32-4.79,1.53-.75.09-.79,1.26,0,1.2,1.61-.12,3.39.51,4.65,1.62-.04.12-.07.24-.06.37,0,0,0,.02,0,.04,0,0,0,.01,0,.02,0,.02,0,.03.01,0,0,0,0,.01-.01.02,0,.01,0,.02,0,.03,0,.02,0,.04.01.07-.01-.04-.02-.07-.02-.09,0,0,0,.01-.01.02-.02.03-.05.07-.07.1-.19.27-.33.45-.56.71-.41.47-.9.93-1.38,1.29-.18.14-.28.36-.15.58.11.18.39.28.58.15.58-.41,1.13-.87,1.61-1.39.25-.27.48-.55.7-.84.02-.02.04-.05.05-.07,0,0,0,0,0,0l.03-.02s0,0,.02,0h.04s.04-.03.06-.04c.78,1.12,1.17,2.51,1.29,3.89-.02.53-.01,1.06.04,1.56.1.95,1.48,1,1.51,0,.01-.45-.02-.89-.07-1.34,0-1.47.27-2.99,1.11-4.2.05-.07.1-.12.15-.18.58.56,1.24,1.03,1.83,1.57.72.66,1.48,1.28,2.26,1.87.42.32.99-.41.57-.74-.75-.58-1.47-1.2-2.16-1.85-.61-.57-1.04-1.22-1.53-1.83,1.3-.99,2.99-1.34,4.64-1.26.79-.02.78-1.18,0-1.22Zm-6.69,2.64c-.47.59-.83,1.3-1.1,2.05-.32-.65-.7-1.26-1.15-1.81.02-.11.01-.23-.01-.33-.05-.23-.23-.4-.43-.49-.12-.05-.24-.06-.36-.05-.6-.56-1.28-1.03-2.03-1.38.78-.25,1.52-.62,2.21-1.25,1.02-.93,1.57-2.1,1.89-3.35.3.91.71,1.76,1.25,2.49.69.93,1.62,1.58,2.66,2.01-1.11.42-2.12,1.09-2.92,2.1Z"/>
      <path class="cls-1" d="m45.92,20.6c1.16-.09,2.46.32,3.42,1.09-.15.2-.29.39-.43.59-.19.27-.39.53-.6.78-.44.53-.87,1.07-1.3,1.62-.12.15-.14.34,0,.49.13.13.36.14.49,0,.46-.51.93-1.02,1.38-1.54.22-.26.44-.5.68-.74.17-.16.34-.32.5-.49.02.02.04.04.05.06.64.87.94,1.99,1.03,3.1-.02.43-.01.85.03,1.25.1.95,1.48,1,1.51,0,.01-.36-.01-.72-.06-1.07,0-1.02.17-2.06.67-2.94.17.16.35.32.52.49.31.31.61.63.93.93.31.29.61.59.95.86.17.14.34.29.52.42.18.12.39.22.59.32.1.05.2-.05.15-.15-.09-.19-.17-.4-.28-.58-.11-.18-.26-.35-.38-.52-.27-.36-.58-.69-.87-1.03-.28-.32-.58-.63-.88-.93-.21-.21-.4-.44-.59-.66,1.03-1.01,2.51-1.36,3.94-1.3.79-.02.78-1.18,0-1.22-1.36.03-2.88-.28-3.88-1.24.12-.13.24-.27.33-.42.1-.16.19-.33.28-.5.1-.18.21-.35.34-.51.13-.16.29-.3.44-.44.58-.58,1.16-1.15,1.68-1.8.12-.15.15-.36,0-.51-.13-.13-.38-.14-.51,0-.56.6-1.06,1.25-1.59,1.88-.26.31-.51.6-.86.81-.16.1-.32.2-.49.29-.11.07-.21.15-.31.23-.78-1.55-.4-3.31-.79-4.96-.13-.55-.97-.54-1.1,0-.2.8-.22,1.69-.1,2.58-.16.81-.4,1.6-.81,2.29-.36-.38-.75-.74-1.1-1.13-.48-.51-.94-1.04-1.44-1.53-.12-.12-.31-.13-.44-.03-.12.09-.19.3-.09.43.43.55.85,1.11,1.23,1.69.35.53.6,1.12.91,1.67-1.08.9-2.33.98-3.65,1.15-.75.1-.79,1.27,0,1.2Zm4.5-1.44c.72-.67,1.15-1.47,1.41-2.33.23.59.52,1.15.88,1.63.5.67,1.15,1.17,1.89,1.52-.79.34-1.51.84-2.09,1.57-.32.4-.58.87-.79,1.38-.66-1.19-1.62-2.2-2.81-2.82.53-.2,1.04-.49,1.52-.93Z"/>
      <path class="cls-1" d="m1.38,16.13c1.78-.13,3.73.57,5.12,1.78-.43.4-.87.8-1.29,1.22-.49.49-.98.97-1.46,1.46-.2.2-.21.57,0,.76.22.21.54.2.76,0,.51-.46,1.02-.92,1.54-1.38.43-.39.85-.81,1.27-1.21.99,1.26,1.46,2.91,1.61,4.54-.03.59-.01,1.17.05,1.72.1.95,1.48,1,1.51,0,.01-.49-.02-.98-.07-1.47,0-1.63.31-3.32,1.24-4.65.01-.02.03-.03.04-.05.64.6,1.27,1.21,1.9,1.82.18.17.5.19.67,0,.18-.2.18-.48,0-.67-.6-.67-1.2-1.34-1.8-2.02,1.48-1.38,3.56-1.87,5.57-1.78.79-.02.78-1.18,0-1.22-2.07.04-4.36-.47-5.79-2.02.3-.28.44-.58.73-.87.28-.28.56-.56.83-.85.55-.56,1.14-1.07,1.7-1.62.44-.43-.24-1.1-.67-.67-.56.55-1.1,1.12-1.68,1.64-.29.25-.59.5-.87.76-.23.21-.51.37-.77.55-1.16-2.18-.77-4.68-1.16-7.05-.09-.55-1-.54-1.1,0-.18.99-.21,2.06-.11,3.12-.26,1.6-.68,3.18-1.65,4.43-.24-.19-.46-.38-.72-.61-.33-.29-.67-.58-1-.87-.66-.58-1.32-1.17-1.97-1.76-.34-.31-.82.16-.51.51.59.66,1.18,1.31,1.76,1.98.28.32.56.65.84.97.24.27.44.51.64.75-1.52,1.22-3.27,1.34-5.14,1.57-.75.09-.79,1.26,0,1.2Zm6.09-1.94c1.16-1.06,1.78-2.38,2.13-3.81.32,1.05.79,2.04,1.42,2.89.78,1.05,1.85,1.78,3.03,2.25-1.27.45-2.42,1.21-3.32,2.35-.54.68-.95,1.5-1.25,2.37-.95-2.04-2.54-3.75-4.57-4.64.91-.27,1.77-.68,2.56-1.4Z"/>
      <path class="cls-1" d="m42.81,45.99c-.31-.42-.63-.82-.97-1.21-.32-.37-.65-.73-.98-1.09-.18-.19-.37-.36-.56-.53-.09-.08-.18-.16-.27-.25-.04-.03-.08-.07-.12-.1,1.94-1.99,4.49-3.61,7.03-4.52,2.05-.73,4.18-1,6.32-1.04.42.03.85.04,1.27.05.83.06,1.66.12,2.49.16,1.49.08,2.99.17,4.49.17,1.44,0,3.13.15,4.51-.33.65-.22.78-1.3,0-1.46-1.39-.29-2.92-.1-4.34-.14-1.5-.05-2.99-.1-4.49-.17-2.61-.12-5.22-.14-7.83-.04-3.35-.74-6.51-2.2-8.89-4.63.19-.14.37-.29.53-.47.18-.21.35-.42.53-.63.38-.42.76-.82,1.15-1.22.76-.8,1.49-1.64,2.18-2.5.19-.24.23-.56,0-.8-.2-.2-.6-.23-.8,0-.71.83-1.45,1.63-2.22,2.4-.38.38-.77.73-1.19,1.07-.39.31-.86.57-1.23.94-.15-.19-.3-.37-.43-.57-2.32-3.36-3.11-7.21-3.45-11.16.02-.07.05-.13.05-.21.13-2.84.25-5.68.27-8.53.02-2.85-.35-5.68-.33-8.53,0-.86-1.35-.87-1.34,0,.02,2.85-.36,5.67-.33,8.53,0,.64.03,1.28.04,1.92-.05,1.06-.06,2.13-.04,3.21-.63,5.8-1.61,11.73-5.61,16.04-.3-.29-.59-.58-.86-.9-.41-.48-.82-.97-1.23-1.45-.82-.97-1.64-1.93-2.46-2.9-.35-.41-1.09.14-.76.59.75,1.02,1.51,2.03,2.26,3.05.38.51.75,1.02,1.13,1.53.29.39.53.79.77,1.2-.06.05-.11.11-.17.16-2.32,1.98-5.19,3.17-8.17,3.74-.66.13-1.31.2-1.97.26-5.33-.97-10.95-.82-16.3-.16-.64.08-.66.95,0,1.02,2.77.26,5.53.29,8.3.38,1.23.04,2.46.08,3.7.11.09.12.24.2.46.19,3.18-.24,5.91.44,8.76,1.82,1.84.9,3.54,1.88,5.06,3.16-.17.19-.33.38-.46.62-.13.24-.28.46-.45.68-.37.47-.75.92-1.13,1.38-.77.91-1.51,1.84-2.23,2.79-.28.37.35.86.65.5.75-.89,1.52-1.77,2.32-2.62.4-.42.8-.82,1.23-1.21.19-.17.38-.33.6-.46.26-.15.48-.33.69-.53.27.28.52.57.77.87,2.68,3.27,4.12,7.46,4.65,11.71-.38,5.04-.36,10.08.7,15.08.17.78,1.32.57,1.35-.18.18-5.05-.2-10.06-.46-15.09.23-4.17,1.34-8.42,3.82-11.61.04.02.08.04.12.07.01,0,0,0,.01.01.02.01.03.02.05.04.04.03.09.07.13.1.23.18.46.38.7.55.38.28.76.56,1.12.85.4.31.79.63,1.19.94.4.3.76.67,1.12,1.01.31.3.72-.14.46-.46-.3-.39-.63-.76-.91-1.16Zm-8.64,5.14c-.12.04-.23.12-.3.24-.93-2.9-2.36-5.63-4.33-8.02-2.04-2.48-4.58-4.06-7.43-5.44-1.17-.57-2.34-1.03-3.53-1.36,1.87-.28,3.71-.72,5.54-1.59,1.49-.71,2.79-1.63,3.93-2.69.2,0,.4-.03.57-.16.24-.18.34-.47.32-.74,2.61-2.86,4.17-6.59,4.89-10.53.13-.72.23-1.45.33-2.17.53,4.21,1.8,8.3,4.31,11.63,2.28,3.03,5.58,4.95,9.17,6,.05.14.15.25.34.28.08.01.15.02.23.03-.65.16-1.3.34-1.94.58-3.13,1.16-6.26,3.25-8.37,5.86-1.83,2.27-3.03,5.11-3.72,8.1Z"/>
      <path class="cls-1" d="m14.3,57.13s0,0,0,0c0-.01,0-.01,0-.02,0-.01,0-.02,0-.04,0,0-.01.03,0,.08,0,0,0,0,0,0,0,0,0,0,0-.02Z"/>
    </g>
  </g>
</svg>