<?xml version="1.0" encoding="UTF-8"?>
<svg id="Layer_2" data-name="Layer 2" xmlns="http://www.w3.org/2000/svg" viewBox="0 0 73.15 72.71">
  <defs>
    <style>
      .cls-1 {
        fill: #ffffff;
      }
    </style>
  </defs>
  <g id="OBJECTS">
    <path class="cls-1" d="m72.47,37.07c.62-.09,1.08-.35.13-.88-.63-.35-1.61-.14-2.3-.14-3.35,0-6.7,0-10.04,0-2.69,0-5.78.49-8.18-.82-.57-.31-1.06-.81-1.22-1.44-.22-.81.13-1.68.69-2.31,1.26-1.39,3.17-2.12,4.85-2.84,1.99-.85,3.99-1.68,5.99-2.5,1.5-.62,3.01-1.24,4.51-1.86,1.11-.46,2.72-.79,3.69-1.48.31-.22.43-.76.11-.94-.2-.11-.44-.04-.65.03-2.65.93-5.44,2.01-7.95,3.27-1.89.79-3.77,1.58-5.66,2.36-1.99.83-3.8,1.71-6.01.91-.7-.26-1.39-.7-1.67-1.39-.27-.68-.08-1.46.24-2.12.65-1.33,1.56-2.04,2.57-3.08,1.23-1.26,2.46-2.51,3.71-3.76,2.48-2.48,4.98-4.93,7.53-7.35.32-.31.51-.85.22-1.18-1.46.37-2.63,2.03-3.65,3.05-2.11,2.11-4.26,4.17-6.38,6.27-.95.94-1.77,1.91-2.85,2.71-1.01.75-2.09,1.4-3.22,1.95-.61.29-1.34.55-1.92.22-.35-.2-.56-.58-.65-.97-.09-.39-.07-.8-.04-1.2.2-3.67,1.25-7.08,2.66-10.47.68-1.64,1.42-3.25,2.14-4.86.42-.94,1.78-2.97,1.65-4.03-.03-.26-.31-.5-.55-.39-.09.04-.15.12-.2.2-.27.38-.5.74-.7,1.14-2.28,4.59-3.94,9.6-5.89,14.35-1.02,1.31-3.41,5.8-5.4,3.7-.58-.61-.78-1.48-.92-2.3-.34-2.07-.41-4.17-.41-6.26v-6.16c0-1.92.3-4.1-.08-5.99-.05-.25-.19-.54-.44-.53-.21.01-.34.23-.4.43-.32,1.04-.13,2.39-.13,3.48,0,2.49-.13,5.02.01,7.49.14,2.55-.14,5.11-.83,7.57-.16.56-.34,1.12-.68,1.6-.34.47-.85.85-1.43.9-.99.08-1.79-.78-2.35-1.6-2.58-3.75-4.06-8.26-5.8-12.45-.38-.91-.76-1.81-1.13-2.72-.3-.72-.44-1.76-1.01-2.31-.11-.11-.25-.21-.4-.24-.15-.03-.33,0-.43.13-.14.17-.08.42-.01.63.45,1.41,1.13,2.78,1.71,4.15.92,2.3,1.91,4.57,2.87,6.86.87,2.07,3.12,5.74,1.39,7.88-.43.53-1.12.78-1.8.8s-1.34-.2-1.95-.49c-1.64-.75-2.99-1.99-4.32-3.21-1.15-1.06-2.29-2.08-3.4-3.18-1.07-1.07-2.59-2.17-3.42-3.42-.84-.84-1.34-1.86-2.57-2.21-.15-.04-.31-.07-.44.01-.22.14-.16.48,0,.68,2.68,3.04,5.98,5.59,8.69,8.63,1.02,1.14,1.95,2.34,2.84,3.58.74,1.03,1.59,1.63,2,2.89.15.47.25.99.04,1.44-.24.53-.84.79-1.4.94-1.02.27-2.08.33-3.14.31-2-.04-3.9-1.35-5.74-2.11-3.31-1.36-6.72-2.58-9.97-4.05-.43-.19-1.02-.37-1.29.01-.16.23-.09.57.09.79.18.22.45.34.71.45.68.29,1.39.53,2.09.78.38.13.76.26,1.14.4,4.53,1.57,9.43,3.17,13.51,5.73.54.34,1.07.69,1.5,1.16.43.47.75,1.05.79,1.69.04.61-.2,1.23-.64,1.66-1.47,1.43-4.32.98-6.15.98-2.46,0-4.91,0-7.37,0-2.07,0-4.06-.27-6.12-.12-.26.02-.52.04-.75.14-.24.1-.45.3-.49.56-.05.34.21.66.52.79.31.13.66.12,1,.11,4.69-.19,9.28-.42,13.98-.42,1.43,0,2.8-.11,4.24-.05.31.01.62.03.93.09.88.2,1.77.96,2.02,1.85.29,1.02-.51,1.95-1.29,2.58-.75.61-1.64,1.01-2.52,1.4-4.73,2.1-9.55,4.01-14.43,5.71-.48.17-.99.36-1.27.78-.28.42-.13,1.14.37,1.23.22.04.43-.05.63-.14,2.71-1.17,5.41-2.33,8.12-3.5,2.99-1.29,6.01-2.59,9.23-3.05.73-.1,1.54-.15,2.15.26.53.35.82.99.88,1.62.13,1.21-.46,2.03-1.26,2.84-1.96,1.96-3.91,3.91-5.87,5.87-1.67,1.67-3.34,3.34-5.01,5.01-.72.72-1.49,1.38-2.21,2.11-.29.29-.55.66-.55,1.08,0,.41.4.83.8.72.16-.05.29-.17.42-.29.86-.87,1.57-1.86,2.32-2.82,2.55-3.25,5.59-6.07,8.72-8.77,1.29-1.11,2.62-2.22,4.19-2.89.37-.16.77-.3,1.18-.27.85.06,1.51.84,1.71,1.67.29,1.22-.1,2.83-.56,3.97-2.13,5.19-3.95,10.7-6.51,15.69-.16.32-.26.7-.12,1.03.62,1.35,1.28-.9,1.44-1.31.22-.58.48-1.16.71-1.74.66-1.61,1.33-3.23,1.99-4.84.95-2.3,1.89-4.6,2.84-6.9.12-.04.23-.13.29-.3.05-.16.1-.31.16-.47.09-.05.17-.12.22-.22.71-1.36,1.77-3.87,3.32-4.45.58-.22,1.3-.12,1.7.35.15.18.25.4.33.63.49,1.31.68,2.8.87,4.19,0,5.32.09,10.66.05,15.97,0,.38.05.86.41.99.32.12.68-.16.77-.49.17-.59-.18-1.46-.19-2.1,0-.69,0-1.38,0-2.07v-10.65c.1-.08.17-.21.16-.39,0-.16-.02-.33-.03-.49.06-.08.11-.17.12-.29.15-1.54.18-3.5,1.25-4.73.46-.53,1.19-.89,1.87-.72,1.55.37,2.3,2.49,3.01,3.71,2.03,4.86,4.38,9.69,6.12,14.64.19.53.43,1.12.95,1.34.13.06.29.08.41,0,.05-.04.08-.09.11-.14.23-.45.02-.99-.19-1.45-2.54-5.63-4.89-11.3-6.51-17.3-.2-.73-.39-1.49-.23-2.23s.76-1.44,1.51-1.45c.49,0,.93.27,1.33.54,1.05.71,2.14,1.45,3.04,2.35l6.25,6.25c1.21,1.21,2.42,2.42,3.62,3.62.65.65,1.82,2.29,2.76,2.34.07,0,.14,0,.19-.04.11-.09.06-.27,0-.39-1.27-2.53-4.19-4.62-6.18-6.61-1.67-1.67-3.34-3.34-5.01-5.01.06-.65-1.44-2.13-1.8-2.67-.49-.72-.89-1.54-.89-2.41,0-.87.53-1.78,1.38-1.99.3-.08.62-.06.94-.04,3.9.22,7.89,2.63,11.49,4.11,1.53.63,3.07,1.26,4.6,1.89.51.21,3.33,1.67,3.34.59,0-.82-3.06-1.6-3.7-1.86-1.51-.62-3.02-1.24-4.53-1.86-3.31-1.36-7.31-2.41-10.09-4.72-.82-.69-1.61-1.66-1.41-2.72.17-.94,1.1-1.59,2.03-1.8,1.04-.23,2.19-.17,3.24-.3,1.26-.15,2.61-.02,3.88-.02,2.67,0,5.35,0,8.02,0,1.33,0,2.68-.05,4.01,0,.2,0,.45,0,.68-.03Z"/>
  </g>
</svg>