<?xml version="1.0" encoding="UTF-8"?>
<svg id="Layer_2" data-name="Layer 2" xmlns="http://www.w3.org/2000/svg" viewBox="0 0 68.96 68.96">
  <defs>
    <style>
      .cls-1 {
        fill: #ffffff;
      }
    </style>
  </defs>
  <g id="OBJECTS">
    <g>
      <path class="cls-1" d="m68.45,34.08c-4.38-.24-8.7-.76-13.1-.78-4.44-.03-8.88-.06-13.32-.11-.91-.01-1.82-.01-2.73-.02,6.02-2.47,12.04-4.92,18.16-7.13.36-.13.2-.7-.16-.57-6.16,2.22-12.41,4.22-18.54,6.54.6-.61,1.2-1.22,1.81-1.82.83-.82,1.71-1.6,2.46-2.49.86-1.01,1.49-2.18,2.32-3.21.43-.53-.21-1.16-.74-.74-.99.78-2.12,1.35-3.09,2.15-.9.74-1.7,1.6-2.53,2.42-.7.7-1.42,1.38-2.13,2.06,3.34-7.22,6.78-14.4,9.95-21.71.13-.31-.29-.58-.46-.27-3.8,6.89-7.17,13.99-10.48,21.12.01-4.7.02-9.41.06-14.11.02-2.4.13-4.83-.06-7.23-.21-2.56-.43-5.11-.54-7.68-.03-.67-1.01-.67-1.05,0-.24,4.38-.76,8.7-.78,13.1-.03,4.44-.06,8.88-.11,13.33,0,.64,0,1.28-.01,1.93-2.57-6.35-5.23-12.66-7.9-18.97-.11-.26-.57-.07-.47.2,2.57,6.92,5.16,13.83,7.86,20.69-2.57-2.56-5.25-5.05-8.04-7.32-.73-.59-1.6.29-1.02,1.02,1.96,2.47,4.09,4.85,6.28,7.15-5.15-2.48-10.36-4.85-15.51-7.34-.45-.22-.86.45-.4.68,5.19,2.66,10.32,5.44,15.51,8.1-4.69-.01-9.38,0-14.07.06-4.97.06-9.94.09-14.91.29-.93.04-.93,1.39,0,1.44,9.79.52,19.6.68,29.4.75-6.74,3.03-13.34,6.45-19.66,10.24-.48.29-.04,1.04.44.75,6.17-3.79,12.66-6.87,19.3-9.69-2.28,2.32-4.49,4.73-6.52,7.22-.59.73.29,1.6,1.02,1.02,2.31-1.83,4.54-3.81,6.7-5.85-3.01,6.69-5.92,13.41-8.82,20.15-.36.83.8,1.33,1.15.49,3.07-7.3,6.31-14.55,9.58-21.77-.02,5.06-.01,10.11.05,15.17.06,4.97.09,9.94.29,14.91.04.93,1.39.93,1.44,0,.53-9.98.69-19.98.75-29.97,1.15,2.9,2.29,5.81,3.45,8.71,1.67,4.19,3.53,8.3,5.22,12.49.17.43.88.25.71-.2-1.63-4.19-3.1-8.44-4.75-12.62-1.01-2.55-2.03-5.1-3.05-7.65.45.45.92.9,1.37,1.36.82.83,1.6,1.71,2.49,2.46,1.01.86,2.18,1.49,3.21,2.32.53.43,1.16-.21.74-.74-.78-.99-1.35-2.12-2.15-3.09-.74-.9-1.6-1.7-2.42-2.53-.17-.17-.33-.34-.49-.51,5.73,2.84,11.44,5.75,17.22,8.47.74.35,1.39-.72.65-1.11-6.55-3.44-13.23-6.64-19.83-9.98,5.12.01,10.23.02,15.34.06,2.4.02,4.83.13,7.23-.06,2.56-.21,5.11-.43,7.68-.54.67-.03.67-1.01,0-1.05Z"/>
      <path class="cls-1" d="m14.83,14.32c1.91,2.35,3.76,4.71,5.82,6.93.36.39,1.05-.12.74-.57-1.71-2.51-3.66-4.78-5.69-7.04-2.04-2.28-4.08-4.56-6.2-6.77-.36-.37-.89.18-.56.56,1.99,2.28,3.98,4.56,5.88,6.9Z"/>
      <path class="cls-1" d="m55.82,54.02c-2.51-2.49-5.03-4.95-7.42-7.55-.57-.61-1.45.29-.91.91,2.36,2.68,4.78,5.34,7.39,7.78,2.59,2.41,5.32,4.6,8.15,6.72.3.22.66-.26.39-.51-2.59-2.39-5.1-4.88-7.59-7.35Z"/>
      <path class="cls-1" d="m49.63,21.51c2.91-2.51,5.77-5.08,8.62-7.66,1.38-1.26,2.74-2.53,4.08-3.84,1.4-1.37,2.91-2.72,4.12-4.26.44-.56-.22-1.24-.78-.78-1.47,1.22-2.77,2.68-4.12,4.03-1.36,1.36-2.72,2.71-4.09,4.06-2.73,2.71-5.55,5.31-8.43,7.86-.4.36.19.94.59.59Z"/>
      <path class="cls-1" d="m20.15,48.07c-2.36,2.2-4.53,4.63-6.73,6.99-2.21,2.36-4.47,4.68-6.77,6.95-.33.33.16.81.51.51,2.43-2.14,4.82-4.32,7.18-6.54,2.35-2.21,4.69-4.49,6.71-7.01.5-.62-.28-1.46-.89-.89Z"/>
    </g>
  </g>
</svg>