<?xml version="1.0" encoding="UTF-8"?>
<svg id="Layer_2" data-name="Layer 2" xmlns="http://www.w3.org/2000/svg" viewBox="0 0 60.04 77.2">
  <defs>
    <style>
      .cls-1 {
        fill: #ffffff;
      }
    </style>
  </defs>
  <g id="OBJECTS">
    <g>
      <path class="cls-1" d="m59.3,59.13c-.38,0-.77-.02-1.15-.03-.8-.06-1.61-.22-2.38-.46-.04-.08-.09-.14-.19-.18-.37-.16-.76-.27-1.16-.35-1.79-.87-3.27-2.29-3.97-4.24-1.28-3.6-1.57-7.61-1.55-11.4,0-1-1.57-1-1.55,0,.02,1.39.07,2.85.19,4.31-.08.54-.18,1.09-.29,1.63-.37,1.82-.82,3.77-1.73,5.41-.96,1.74-2.54,3.29-4.39,4.05-1.59.66-3.35.79-5.03,1.07-.73.12-.53,1.26.17,1.26,3.26.03,6.64.41,8.32,3.52.8,1.48,1.57,3.06,2.01,4.68.5,1.83.68,3.71.76,5.6.01.87.04,1.74.07,2.58.03.84,1.32.85,1.31,0,0-1.5-.02-3.01-.13-4.51.03-2.34.31-4.67,1.26-6.85.77-1.78,2.06-3.43,3.95-4.08,1.74-.6,3.67-.44,5.47-.47.99,0,.99-1.51,0-1.53Zm-10.53-5.75s-.06,0-.08,0c0-.09,0-.17,0-.25.03.08.05.16.08.25Zm-3.93,3.9s-.09-.09-.14-.12c.07-.07.14-.14.21-.21-.02.11-.05.22-.07.33Zm-2.92,2.04s0,.02,0,.03c-.04.08-.06.16-.07.25-.27-.09-.54-.18-.81-.25.3-.01.59-.02.89-.03Zm6.67,5.06c.05,0,.1-.03.14-.04-.05.13-.1.26-.15.38,0-.12,0-.23,0-.35Zm5.23-4.93s0-.06,0-.08c.04.02.07.04.11.05-.04.01-.08.02-.12.03Z"/>
      <path class="cls-1" d="m5.83,14.67c1.36,2.58,1.69,5.16,1.76,8.04.03.84,1.31.85,1.31,0,0-.85-.03-1.69-.1-2.5,0-1.49.13-2.97.69-4.41.46-1.19,1.29-2.31,2.53-2.75,1.07-.38,2.32-.28,3.44-.3.99.02.99-1.5,0-1.53-.3-.01-.61-.02-.91-.03-2.04-.2-3.93-1.34-4.61-3.38-.75-2.24-.91-4.7-.89-7.05,0-1-1.57-1-1.55,0,.02,1.05.06,2.18.17,3.3-.25,1.35-.66,2.68-1.26,3.8-1.31,2.43-3.46,2.87-5.94,3.28-.74.12-.53,1.25.17,1.26,2.1.05,4.14.28,5.2,2.28Zm3.29-4.88c0-.12,0-.24.01-.36.06.1.12.2.18.29-.07.02-.13.04-.19.06Zm-.84-2.4c-.05.02-.1.06-.14.1.03-.08.06-.17.09-.26.02.05.03.1.05.16Zm-3.44,3.98c.04.23.18.45.4.62.01,0,.02.02.03.03-.28-.17-.57-.31-.87-.42.01,0,.02,0,.03-.01.14-.06.27-.15.4-.22Z"/>
      <path class="cls-1" d="m43.4,21.75c1.72.04,3.45.23,4.32,1.87,1.16,2.18,1.44,4.38,1.5,6.82.03.84,1.31.85,1.31,0,0-.77-.03-1.52-.09-2.26,0-1.25.13-2.49.64-3.69.4-.94,1.06-1.81,2.04-2.16.9-.33,1.95-.23,2.89-.26.99.03.98-1.5,0-1.53-.27-.01-.54-.02-.82-.03-1.69-.17-3.24-1.11-3.79-2.81-.62-1.9-.76-3.96-.74-5.95.01-1-1.58-1-1.55,0,.02.93.06,1.93.16,2.92-.23,1.12-.59,2.22-1.11,3.14-1.12,1.99-2.89,2.34-4.95,2.69-.74.12-.53,1.25.17,1.26Zm7.19.44c.09-.04.18-.09.27-.14-.09.11-.18.21-.26.33,0-.06,0-.12,0-.19Zm-.07-2.95s0-.07,0-.1c.02.03.04.06.06.09-.02,0-.04,0-.06,0Zm-.72-1.17s-.06-.04-.09-.05c.04-.09.08-.19.11-.28,0,.11-.01.23-.02.34Zm-1.12,4.4c.07,0,.13,0,.2.01.02.13.03.27.05.4-.04-.08-.08-.15-.12-.23-.04-.07-.09-.12-.13-.18Z"/>
      <path class="cls-1" d="m12.76,54.97c-.22-.01-.44-.02-.66-.03-1-.13-1.9-.68-2.23-1.7-.41-1.27-.49-2.64-.47-3.96.02-1-1.58-1-1.55,0,.02.68.06,1.4.14,2.11-.18.66-.42,1.31-.73,1.86-.72,1.29-1.86,1.5-3.19,1.73-.74.13-.53,1.24.17,1.26,1.08.04,2.18.15,2.72,1.17.77,1.43.95,2.89,1,4.5.02.84,1.31.85,1.31,0,0-.59-.02-1.16-.07-1.72,0-.75.11-1.49.43-2.22.25-.56.65-1.08,1.24-1.3.58-.21,1.28-.15,1.89-.18.99.05.98-1.48,0-1.53Z"/>
      <path class="cls-1" d="m41.18,36.01c.74,0,1.48.01,2.21,0,.99,0,.99-1.52,0-1.53-.5,0-1-.02-1.51-.03-5.1-.33-10.43-3.08-12.3-8.01-2.13-5.61-2.58-12.02-2.56-17.97,0-1-1.56-1-1.55,0,.01,1.84.11,3.68.26,5.51-.14,1.32-.33,2.63-.58,3.93-.53,2.75-1.19,5.68-2.54,8.15-1.47,2.68-3.92,5.09-6.74,6.3-2.52,1.08-5.31,1.28-7.98,1.73-.73.12-.54,1.26.17,1.26,3.98.02,9,.25,11.79,3.55.9,1.07,1.51,2.35,2.1,3.6,1.1,2.32,2.14,4.59,2.68,7.12.45,2.12.67,4.27.78,6.43.02,1.62.08,3.23.14,4.79.03.84,1.32.85,1.31,0-.01-2.18-.04-4.37-.19-6.55,0-.65.02-1.3.06-1.95.45-3.68,1.78-7.21,3.77-10.36,1.16-1.84,2.51-3.39,4.48-4.37,1.91-.95,4.06-1.29,6.15-1.58.03,0,.05-.02.07-.03Zm-12.94,1.03s.08.08.12.12c-.04.05-.08.11-.12.16,0-.09,0-.19,0-.28Zm-1.71,7.99s-.01-.07-.02-.11c0-.37.02-.74.02-1.11.12.03.23.04.35.03-.13.39-.25.79-.36,1.19Zm8.04-10.05c.21,0,.42-.02.63-.03-.33.09-.67.19-.99.31-.25.09-.49.21-.72.32.35-.23.71-.43,1.09-.61Zm-8.26-16c-.03-.05-.08-.08-.14-.07.02-.16.04-.33.06-.49.03.19.05.37.08.56Zm-10.72,14.99c-.06,0-.13,0-.19,0,.06-.02.12-.04.18-.06,0,.02,0,.04.01.05Z"/>
    </g>
  </g>
</svg>