<?xml version="1.0" encoding="UTF-8"?>
<svg id="Layer_2" data-name="Layer 2" xmlns="http://www.w3.org/2000/svg" viewBox="0 0 68.22 59.11">
  <defs>
    <style>
      .cls-1 {
        fill: #ffffff;
      }
    </style>
  </defs>
  <g id="OBJECTS">
    <g>
      <g>
        <path class="cls-1" d="m61.06,28.08c-3.39-.15-6.76-.44-10.15-.55-3.33-.11-6.66-.21-9.99-.29-.12,0-.23,0-.35,0,.55-.2,1.1-.41,1.65-.61,2.31-.85,4.55-1.84,6.84-2.71.38-.14.24-.73-.17-.62-2.36.64-4.73,1.17-7.08,1.86-1.1.33-2.21.66-3.31.99,2.08-2.14,4.16-4.29,6.25-6.41,2.4-2.44,4.69-4.99,7.09-7.44.29-.3-.15-.73-.46-.46-2.23,2.03-4.55,3.95-6.76,6.01-2.16,2.02-4.33,4.04-6.47,6.08-.09.09-.19.18-.29.27.24-.75.5-1.49.71-2.26.67-2.4,1.48-4.75,2.17-7.14.14-.48-.62-.83-.82-.35-.96,2.22-1.82,4.49-2.83,6.69-.37.81-.71,1.63-1.05,2.45-.04-3.26-.08-6.51-.1-9.77-.02-3.81-.2-7.61-.23-11.42,0-.42-.63-.41-.64,0-.15,3.39-.44,6.76-.55,10.15-.1,3.24-.2,6.48-.29,9.71-.15-.36-.29-.73-.44-1.1-.99-2.27-1.85-4.59-2.82-6.86-.2-.48-.96-.13-.82.35.65,2.29,1.4,4.56,2.01,6.87.25.93.52,1.86.79,2.77-1.98-1.97-4.05-3.82-6.1-5.72-2.51-2.33-5-4.7-7.54-6.99-.43-.39-1.04.21-.64.64,2.05,2.2,4.16,4.36,6.22,6.55,2.03,2.16,3.96,4.41,6.05,6.5.14.14.29.28.43.43-.81-.27-1.62-.54-2.45-.77-2.4-.67-4.75-1.48-7.14-2.17-.48-.14-.83.62-.35.82,2.22.96,4.49,1.82,6.69,2.83.49.22.98.42,1.47.63-2.94.03-5.87.17-8.81.27-3.81.13-7.62.21-11.42.39-.58.03-.58.89,0,.9,3.38.1,6.77.14,10.15.23,3.33.09,6.66.32,10,.32.02,0,.04,0,.06,0-.47.19-.94.37-1.41.57-2.27.99-4.59,1.85-6.86,2.82-.48.2-.13.96.35.82,2.29-.65,4.56-1.4,6.87-2.01.91-.24,1.8-.5,2.69-.77-1.95,1.96-3.78,4.02-5.66,6.04-2.33,2.51-4.7,5-6.99,7.54-.39.43.21,1.04.64.64,2.2-2.05,4.36-4.16,6.55-6.22,2.16-2.03,4.41-3.96,6.5-6.05.3-.3.6-.61.9-.91-.34,1.01-.68,2.01-1.03,3.02-.81,2.35-1.47,4.75-2.26,7.1-.11.34.44.58.59.25.97-2.18,2.05-4.3,2.97-6.51.21-.49.41-.98.61-1.47.03,2.9.17,5.78.26,8.68.13,3.81.21,7.62.39,11.42.03.58.89.58.9,0,.1-3.38.14-6.77.23-10.15.09-3.33.32-6.66.32-10,0-.26,0-.52,0-.78.25.68.51,1.36.76,2.05.85,2.31,1.84,4.55,2.71,6.84.14.38.73.24.62-.17-.64-2.36-1.17-4.73-1.86-7.08-.32-1.08-.64-2.15-.97-3.22,2.12,2.06,4.25,4.12,6.36,6.2,2.44,2.4,4.99,4.69,7.44,7.09.3.29.73-.15.46-.46-2.03-2.23-3.95-4.55-6.01-6.76-2.02-2.16-4.04-4.33-6.08-6.48-.23-.24-.46-.49-.69-.73.92.32,1.85.63,2.77.94,2.35.81,4.75,1.47,7.1,2.26.34.11.58-.44.25-.59-2.18-.97-4.3-2.05-6.51-2.97-.83-.35-1.66-.69-2.49-1.04,3.22-.04,6.45-.08,9.67-.1,3.81-.02,7.61-.2,11.42-.23.42,0,.41-.63,0-.64Z"/>
        <path class="cls-1" d="m32.25,8.16c.21-.06.31-.27.27-.47-.28-1.4-.57-2.8-.85-4.2-.09-.42-.72-.24-.64.18.25,1.41.5,2.82.75,4.22.04.2.28.32.47.27Z"/>
        <path class="cls-1" d="m24.62,11.78c.11.16.32.23.5.13.16-.09.24-.33.13-.5-.54-.8-1.09-1.59-1.63-2.39-.1-.15-.29-.21-.45-.12-.15.09-.22.3-.12.45.53.81,1.05,1.61,1.58,2.42Z"/>
        <path class="cls-1" d="m20.57,18.28c.36.24.71-.36.34-.58-1.49-.9-2.98-1.8-4.48-2.69-.24-.14-.44.22-.22.37,1.45.97,2.9,1.94,4.35,2.91Z"/>
        <path class="cls-1" d="m12.22,23.94c1.12.37,2.31.52,3.49.44.19-.01.35-.15.35-.35,0-.18-.16-.36-.35-.35-1.12.09-2.25-.02-3.32-.36-.39-.12-.56.49-.17.61Z"/>
        <path class="cls-1" d="m15.4,31.65c-.16.05-.31.09-.47.12-.09.02-.17.03-.26.05,0,0-.13.02-.04,0-.04,0-.09.01-.13.01-.33.03-.66.03-.99,0-.21-.02-.42.2-.41.41.01.24.18.38.41.41.71.07,1.43,0,2.11-.21.21-.06.36-.29.29-.51-.07-.21-.29-.35-.51-.29Z"/>
        <path class="cls-1" d="m19.85,37.07c-.11-.18-.34-.23-.52-.14-.97.51-1.86,1.14-2.68,1.87-.15.13-.13.38,0,.52.15.15.37.13.52,0,.77-.68,1.62-1.26,2.54-1.74.18-.09.23-.35.14-.52Z"/>
        <path class="cls-1" d="m25.01,45.29c-.52.94-1.04,1.89-1.56,2.83-.2.37.35.69.57.33.55-.93,1.1-1.85,1.65-2.78.25-.42-.42-.81-.65-.38Z"/>
        <path class="cls-1" d="m31.08,49.21c-.25-.06-.55.07-.61.35-.14.67-.27,1.33-.41,2-.05.26.07.56.35.62.25.06.57-.08.62-.35.13-.67.26-1.34.39-2.01.05-.25-.07-.55-.35-.61Z"/>
        <path class="cls-1" d="m39.16,47.78c-.07-.21-.29-.36-.51-.29-.21.07-.36.29-.29.51.19.67.38,1.34.58,2.01.06.22.32.39.55.31.22-.07.39-.31.31-.55-.21-.67-.42-1.33-.63-2Z"/>
        <path class="cls-1" d="m45.07,44.19c-.12-.16-.39-.14-.53-.03-.14.11-.23.36-.1.52.67.87,1.33,1.74,2,2.61.15.2.4.28.61.12.21-.17.19-.42.04-.62-.67-.87-1.34-1.73-2.01-2.6Z"/>
        <path class="cls-1" d="m53.38,39.16c-1.01-.73-2.01-1.46-3.02-2.19-.16-.11-.4-.03-.49.13-.11.18-.03.37.13.49,1,.74,2,1.48,3,2.22.16.12.42.03.52-.14.11-.19.03-.4-.14-.52Z"/>
        <path class="cls-1" d="m55.8,31.91c-1.27-.07-2.54-.13-3.81-.2-.4-.02-.4.6,0,.62,1.27.09,2.54.18,3.81.28.45.03.45-.68,0-.7Z"/>
        <path class="cls-1" d="m52.74,24.62c0,.26.21.45.46.46,1.3.06,2.63-.15,3.83-.66.19-.08.24-.35.17-.51-.08-.18-.29-.31-.49-.24-1.14.39-2.3.58-3.51.49-.25-.02-.46.22-.46.46Z"/>
        <path class="cls-1" d="m49.96,19.28c.14.21.46.34.69.18.67-.47,1.33-.94,2-1.41.21-.15.33-.44.18-.67-.14-.21-.45-.33-.67-.18-.67.46-1.34.92-2.02,1.39-.22.15-.34.45-.18.69Z"/>
        <path class="cls-1" d="m44.29,15.23c.12.07.24.02.32-.08.57-.79,1.25-1.5,1.99-2.13.15-.12.14-.39,0-.52-.15-.13-.37-.15-.52,0-.72.72-1.35,1.54-1.88,2.41-.06.11-.02.26.08.32Z"/>
        <path class="cls-1" d="m39.62,7.95c.23-1.08.46-2.16.69-3.24.07-.31-.39-.44-.48-.13-.3,1.06-.59,2.12-.89,3.18-.12.44.58.63.68.19Z"/>
        <path class="cls-1" d="m43.57,8.95c.22-.41.43-.81.65-1.22.07-.13.04-.32-.1-.39-.14-.07-.31-.04-.39.1-.23.4-.46.79-.7,1.19-.08.14-.04.35.11.43.15.08.35.04.43-.11Z"/>
        <path class="cls-1" d="m28.7,9.01c.19-.06.29-.24.25-.44-.09-.44-.18-.89-.28-1.33-.04-.18-.26-.3-.43-.24-.19.06-.28.24-.24.43.09.45.17.89.26,1.34.04.18.27.31.44.25Z"/>
        <path class="cls-1" d="m15.44,20.55c.18.04.36.09.53.13.07.02.15,0,.21-.03.06-.03.11-.1.13-.16.02-.07.01-.15-.03-.21-.04-.06-.09-.11-.16-.13-.18-.04-.36-.09-.53-.13-.07-.02-.15,0-.21.03-.06.03-.11.1-.13.16-.02.07-.01.15.03.21.04.06.09.11.16.13Z"/>
        <path class="cls-1" d="m55.03,35.96s-.09-.07-.14-.08c-.22-.09-.45-.17-.67-.26-.07-.03-.18,0-.25.03-.07.04-.13.12-.15.19-.02.08-.01.18.03.25.02.02.03.04.05.07.04.04.09.07.14.08.22.09.44.18.67.27.07.03.19,0,.25-.03.07-.04.13-.12.15-.2.02-.08.01-.18-.03-.25l-.05-.07Z"/>
        <path class="cls-1" d="m42.45,46.21c-.06-.12-.21-.22-.33-.25-.13-.04-.31-.02-.42.06-.12.08-.22.19-.25.33-.03.15-.01.29.06.42.18.35.36.71.54,1.06.06.12.2.21.32.25.13.04.3.02.42-.05.12-.07.22-.19.25-.32.03-.15.01-.28-.05-.42-.18-.36-.35-.72-.53-1.07Z"/>
        <path class="cls-1" d="m29.88,45.05c-.13-.03-.26.04-.3.17-.1.35-.21.7-.32,1.06-.04.15.05.33.2.36.15.03.33-.04.36-.2.07-.36.15-.72.22-1.08.03-.12-.04-.27-.17-.3Z"/>
        <path class="cls-1" d="m16.82,35.8c.26-.14.53-.28.79-.41.1-.05.18-.17.21-.28.03-.11.02-.26-.05-.36-.06-.1-.16-.19-.28-.21-.04,0-.08-.01-.12-.02-.08,0-.16.02-.23.06-.27.13-.54.26-.81.39-.1.05-.19.18-.22.28-.03.11-.02.27.05.37.07.1.16.19.28.22.13.03.25.01.37-.05Z"/>
      </g>
      <g>
        <path class="cls-1" d="m61.86.24c0,1.54-.08,3.08-.16,4.62-.02.42.62.42.65,0,.11-1.54.09-3.08,0-4.62-.02-.32-.49-.32-.49,0Z"/>
        <path class="cls-1" d="m61.52,7.33c-.03.53-.08,1.06-.07,1.59,0,.24,0,.49.01.73.01.26.07.52.09.78.07,1.04.06,2.09.09,3.12,0,.36.55.36.56,0,.03-1.04.03-2.09.11-3.12.02-.26.08-.52.09-.78.01-.24.01-.49.02-.73.01-.53-.03-1.06-.06-1.59-.03-.53-.8-.53-.83,0Z"/>
        <path class="cls-1" d="m60.02,4.95c-1.58-.02-3.15.02-4.73.06-.24,0-.23.35,0,.37,1.58.13,3.15.25,4.73.33.48.02.48-.74,0-.75Z"/>
        <path class="cls-1" d="m68.03,5.61c-.71-.19-1.49-.18-2.22-.24-.75-.06-1.5-.11-2.24-.18-.51-.05-.53.8,0,.81.75.01,1.5.05,2.24.08.74.03,1.49.12,2.22.02.26-.04.23-.43,0-.49Z"/>
        <path class="cls-1" d="m59.59,3.26c.1.2.18.46.34.63.16.18.55.05.52-.21-.03-.24-.16-.46-.25-.68-.09-.21-.19-.41-.3-.61-.2-.4-.4-.8-.61-1.19-.13-.25-.58-.07-.47.2.17.41.33.83.5,1.24.09.22.17.43.27.64Z"/>
        <path class="cls-1" d="m63.95,3.73c.21-.38.44-.76.67-1.12.24-.36.44-.75.67-1.11.07-.11-.08-.22-.18-.14-.32.3-.65.6-.93.94-.29.35-.56.72-.82,1.09-.1.14-.03.38.12.46.16.08.37.04.46-.12Z"/>
        <path class="cls-1" d="m60.08,6.94c-.4.31-.79.63-1.09,1.03-.28.37-.53.77-.74,1.18-.08.14.12.32.24.18.29-.35.6-.67.95-.96.17-.14.34-.3.5-.44.09-.08.17-.15.26-.22.04-.03.08-.06.12-.1.02-.01.02-.01,0,0,0,0,.02-.01.03-.02.03-.02.05-.04.08-.06.14-.11.23-.3.12-.47-.09-.14-.32-.24-.47-.12Z"/>
        <path class="cls-1" d="m64.72,8.2c-.34-.4-.7-.79-1.07-1.16-.15-.15-.44-.16-.59,0-.15.16-.16.42,0,.59.37.37.73.75,1.07,1.14.34.39.71.76,1.05,1.15.23.27.68-.08.49-.38-.29-.46-.59-.92-.94-1.33Z"/>
      </g>
      <g>
        <path class="cls-1" d="m6.74,45.52c0,1.54-.08,3.08-.16,4.62-.02.42.62.42.65,0,.11-1.54.09-3.08,0-4.62-.02-.32-.49-.32-.49,0Z"/>
        <path class="cls-1" d="m6.4,52.61c-.03.53-.08,1.06-.07,1.59,0,.24,0,.49.01.73.01.26.07.52.09.79.07,1.04.06,2.09.09,3.12,0,.36.55.36.56,0,.03-1.04.03-2.09.11-3.12.02-.26.08-.52.09-.79.01-.24.01-.49.02-.73.01-.53-.03-1.06-.06-1.59-.03-.53-.8-.53-.83,0Z"/>
        <path class="cls-1" d="m4.9,50.23c-1.58-.02-3.15.02-4.73.06-.24,0-.23.35,0,.37,1.58.13,3.15.25,4.73.33.48.02.48-.74,0-.75Z"/>
        <path class="cls-1" d="m12.92,50.89c-.71-.19-1.49-.18-2.22-.24-.75-.06-1.5-.11-2.24-.18-.51-.05-.53.8,0,.81.75.01,1.5.05,2.24.08.74.03,1.49.12,2.22.02.26-.04.23-.43,0-.49Z"/>
        <path class="cls-1" d="m4.47,48.54c.1.2.18.46.34.63.16.18.55.05.52-.21-.03-.24-.16-.46-.25-.68-.09-.21-.19-.41-.3-.61-.2-.4-.4-.8-.61-1.19-.13-.25-.58-.07-.47.2.17.41.33.83.5,1.24.09.22.17.43.27.64Z"/>
        <path class="cls-1" d="m8.83,49.01c.21-.38.44-.76.67-1.12.24-.36.44-.75.67-1.11.07-.11-.08-.22-.18-.14-.32.3-.65.6-.93.94-.29.35-.56.72-.82,1.09-.1.14-.03.38.12.46.16.08.37.04.46-.12Z"/>
        <path class="cls-1" d="m4.96,52.23c-.4.31-.79.63-1.09,1.03-.28.37-.53.77-.74,1.18-.08.14.12.32.24.18.29-.35.6-.67.95-.96.17-.14.34-.3.5-.44.09-.08.17-.15.26-.22.04-.03.08-.06.12-.1.02-.01.02-.01,0,0,0,0,.02-.01.03-.02.03-.02.05-.04.08-.06.14-.11.23-.3.12-.47-.09-.14-.32-.24-.47-.12Z"/>
        <path class="cls-1" d="m9.6,53.48c-.34-.4-.7-.79-1.07-1.16-.15-.15-.44-.16-.59,0-.15.16-.16.42,0,.59.37.37.73.75,1.07,1.14.34.39.71.76,1.05,1.15.23.27.68-.08.49-.38-.29-.46-.59-.92-.95-1.33Z"/>
      </g>
    </g>
  </g>
</svg>