<?xml version="1.0" encoding="UTF-8"?>
<svg id="Layer_2" data-name="Layer 2" xmlns="http://www.w3.org/2000/svg" viewBox="0 0 83.17 86.69">
  <defs>
    <style>
      .cls-1 {
        fill: #ffffff;
      }
    </style>
  </defs>
  <g id="OBJECTS">
    <g>
      <g>
        <path class="cls-1" d="m53.69,26.9c-3.47-.28-6.91-.63-10.39-.73-3.47-.1-6.93-.16-10.4-.19-1.18-.01-2.37-.02-3.55-.03,2.51-1.1,5-2.22,7.48-3.36.35-.16.1-.77-.26-.63-2.03.78-4.07,1.59-6.09,2.41,2.53-2.5,5.07-5,7.62-7.48,2.8-2.73,5.46-5.57,8.2-8.36.29-.3-.14-.72-.46-.46-2.65,2.26-5.34,4.45-7.87,6.84-2.52,2.38-5.02,4.79-7.49,7.22-.95.93-1.91,1.87-2.86,2.8,0-.04,0-.08,0-.13,1-2.47,2.05-4.92,3.26-7.28.05-.11.06-.2.04-.29.12-.09.09-.32-.11-.32-.05,0-.09.02-.12.05-.19-.08-.44-.03-.55.25-.79,2.06-1.65,4.09-2.51,6.12.02-3.76.05-7.53.1-11.29.05-3.92-.08-7.82-.11-11.74,0-.42-.61-.41-.64,0-.28,3.47-.63,6.91-.73,10.39-.1,3.47-.16,6.93-.19,10.4,0,.6-.01,1.2-.02,1.79-.73-1.87-1.46-3.73-2.21-5.59-.12-.29-.59-.17-.48.13.81,2.28,1.65,4.55,2.49,6.82-2.87-2.88-5.77-5.72-8.75-8.48-2.87-2.65-5.8-5.24-8.74-7.81-.36-.32-.89.19-.54.54,5.44,5.46,10.91,10.9,16.35,16.36-2.41-1.08-4.84-2.15-7.29-3.14-.19-.08-.32.24-.14.34,2.49,1.34,5.02,2.6,7.57,3.84-4.06,0-8.12.03-12.17.19-3.92.16-7.83.4-11.74.66-.48.03-.49.76,0,.76,7.54.02,15.07,0,22.61,0-2.4,1.07-4.79,2.16-7.13,3.33-.23.11-.07.5.17.41,2.85-1.01,5.68-2.12,8.5-3.28-2.95,2.93-5.86,5.9-8.67,8.95-2.65,2.87-5.24,5.8-7.81,8.74-.32.36.19.89.54.54,5.46-5.44,10.9-10.9,16.35-16.35-.96,2.44-1.88,4.89-2.78,7.34-.14.39.48.56.62.17,1.01-2.84,2.11-5.65,3.21-8.45-.01,4.32.02,8.65.19,12.96.16,3.92.4,7.83.66,11.74.03.48.76.49.76,0,.02-8.18,0-16.37,0-24.55.86,2.31,1.73,4.61,2.58,6.92.2.53,1.05.29.84-.23-.84-2.17-1.68-4.34-2.51-6.5,2.89,2.91,5.76,5.83,8.62,8.76,2.73,2.8,5.57,5.46,8.36,8.2.3.29.72-.14.46-.46-2.26-2.65-4.45-5.34-6.84-7.87-2.38-2.52-4.79-5.02-7.22-7.49-.54-.55-1.08-1.1-1.62-1.65,2.22,1.03,4.44,2.05,6.66,3.07.5.23.94-.51.44-.75-2.46-1.18-4.93-2.36-7.4-3.52,4,.02,8,.04,12.01.1,3.92.05,7.82-.08,11.74-.11.42,0,.41-.61,0-.64Z"/>
        <path class="cls-1" d="m20.84,10.39c-.98-2.04-1.97-4.07-2.91-6.13-.03-.08-.17-.02-.13.06.82,2.11,1.6,4.23,2.38,6.35.18.49.9.2.67-.28Z"/>
        <path class="cls-1" d="m21.98,14.27c.06.14.27.18.4.1.14-.09.18-.25.1-.4-.19-.38-.38-.76-.58-1.13-.06-.13-.25-.17-.37-.1-.13.08-.16.23-.1.37.18.38.36.77.54,1.15Z"/>
        <path class="cls-1" d="m31.41,14.4c.17.07.37-.02.42-.2.07-.25.13-.51.23-.75.09-.24.18-.47.27-.71.18-.48.38-.96.57-1.44.03-.08-.1-.13-.14-.06-.24.46-.47.92-.72,1.38-.12.22-.24.45-.36.67-.12.23-.28.45-.42.67-.1.16-.01.37.15.44Z"/>
        <path class="cls-1" d="m34.66,8.46c.58-1.18,1.15-2.36,1.73-3.55.18-.37-.37-.7-.56-.33-.6,1.17-1.2,2.34-1.8,3.5-.09.17-.05.4.13.5.16.09.41.05.5-.13Z"/>
        <path class="cls-1" d="m20.7,42.19c-.64,1.71-1.3,3.4-2,5.08-.22.51.69.79.85.24.53-1.74,1.09-3.45,1.69-5.16.12-.34-.41-.48-.54-.15Z"/>
        <path class="cls-1" d="m22.47,39.07c-.1-.05-.21-.08-.32-.04-.09.03-.2.09-.25.19-.14.33-.29.66-.43.99-.03.05-.05.1-.05.15-.01.06,0,.11,0,.17.03.1.1.2.19.25.1.05.21.08.32.04.1-.03.21-.09.25-.19.14-.33.28-.67.42-1,.03-.05.05-.1.05-.15.01-.05,0-.11,0-.16-.03-.1-.1-.2-.19-.25Z"/>
        <path class="cls-1" d="m32.04,38.91c-.04-.1-.17-.18-.27-.21-.11-.03-.25-.02-.35.05-.1.06-.18.15-.21.27,0,.04-.01.08-.02.12,0,.08.02.16.06.23.19.43.38.85.56,1.28.04.1.17.18.27.21.11.03.25.02.35-.05.1-.06.18-.16.21-.27.03-.13,0-.23-.05-.35-.19-.43-.38-.85-.57-1.28Z"/>
        <path class="cls-1" d="m33.54,43.21c-.24-.48-.93-.06-.71.42.79,1.67,1.57,3.34,2.41,4.98.11.21.41.28.61.16.22-.13.26-.39.16-.61-.78-1.67-1.63-3.31-2.46-4.95Z"/>
        <path class="cls-1" d="m40.61,32.77c-.33-.19-.61.3-.3.51,1.35.89,2.7,1.79,4.08,2.64.47.29.9-.46.43-.74-1.39-.83-2.8-1.62-4.21-2.41Z"/>
        <path class="cls-1" d="m47.85,36.67c-.24-.14-.47-.29-.71-.43-.06-.04-.13-.06-.2-.06-.07-.02-.14-.01-.21,0-.07.02-.13.05-.18.1-.06.04-.1.09-.14.15-.07.12-.1.27-.05.41.04.13.12.25.24.32.24.14.48.28.71.42.12.07.28.09.41.05.07-.02.13-.05.18-.09.06-.04.1-.09.14-.15.06-.12.1-.27.05-.41-.04-.13-.12-.24-.24-.32Z"/>
        <path class="cls-1" d="m39.12,21.28c-.42.21-.05.82.36.62.81-.39,1.65-.74,2.5-1.04.85-.3,1.72-.55,2.57-.86.39-.14.24-.68-.17-.62-1.82.29-3.61,1.08-5.25,1.9Z"/>
        <path class="cls-1" d="m48.03,17.96s.08.01.12.02c.08,0,.15-.02.22-.06.19-.1.38-.19.57-.29.05-.03.09-.07.12-.11.04-.04.07-.09.08-.15.02-.06.02-.12,0-.18,0-.06-.02-.11-.05-.16-.06-.09-.15-.18-.26-.2-.04,0-.08-.01-.12-.02-.08,0-.15.02-.22.06-.19.1-.38.19-.57.29-.05.03-.09.07-.12.11-.04.04-.07.09-.08.15-.02.06-.02.12,0,.18,0,.06.02.11.05.16.06.09.15.18.26.2Z"/>
        <path class="cls-1" d="m9.71,34.19c.86-.41,1.78-.7,2.72-.89.23-.05.38-.33.31-.55-.07-.22-.31-.39-.55-.31-.97.32-1.87.78-2.7,1.37-.23.16-.03.49.22.37Z"/>
        <path class="cls-1" d="m7.51,34.59c-.6.43-1.16.91-1.78,1.31-.61.4-1.25.75-1.93,1.03-.24.1-.07.49.17.41.72-.23,1.43-.51,2.12-.83.7-.33,1.39-.7,1.98-1.2.4-.34-.14-1.05-.57-.74Z"/>
        <path class="cls-1" d="m15.23,21.01c.11-.19.05-.47-.15-.57-.95-.49-1.94-.91-2.95-1.27-.15-.05-.32.05-.37.18-.05.13-.02.33.13.4.96.41,1.88.88,2.78,1.41.19.12.46.04.57-.15Z"/>
        <path class="cls-1" d="m8.85,18.27c.2.09.44.05.53-.18.09-.22-.03-.42-.24-.51-.04-.01-.08-.03-.11-.05.08.04-.04-.02-.05-.02-.07-.03-.15-.07-.22-.1-.15-.07-.29-.15-.43-.22-.28-.16-.56-.34-.82-.53-.13-.1-.34-.03-.44.09-.09.12-.11.34.03.44.54.43,1.12.8,1.76,1.08Z"/>
      </g>
      <g>
        <path class="cls-1" d="m67.48,67.82c-2.42-.19-4.81-.44-7.23-.51-2.41-.07-4.82-.11-7.24-.13-.82,0-1.65-.02-2.47-.02,1.75-.76,3.48-1.54,5.2-2.34.24-.11.07-.53-.18-.44-1.42.54-2.83,1.1-4.24,1.67,1.76-1.74,3.53-3.48,5.3-5.21,1.95-1.9,3.8-3.87,5.7-5.81.2-.21-.1-.5-.32-.32-1.85,1.57-3.71,3.09-5.48,4.76-1.75,1.66-3.49,3.34-5.22,5.03-.66.65-1.33,1.3-1.99,1.95,0-.03,0-.06,0-.09.69-1.72,1.43-3.42,2.27-5.07.04-.07.04-.14.02-.2.08-.07.06-.23-.07-.23-.04,0-.06.02-.09.04-.13-.06-.31-.02-.38.17-.55,1.43-1.15,2.85-1.75,4.26.01-2.62.03-5.24.07-7.86.04-2.73-.05-5.44-.08-8.17,0-.29-.43-.28-.45,0-.19,2.42-.44,4.81-.51,7.23-.07,2.41-.11,4.82-.13,7.24,0,.42,0,.83-.01,1.25-.51-1.3-1.01-2.6-1.54-3.89-.08-.2-.41-.12-.33.09.56,1.59,1.15,3.17,1.73,4.75-2-2-4.01-3.98-6.09-5.9-2-1.84-4.04-3.64-6.08-5.43-.25-.22-.62.13-.37.37,3.79,3.8,7.59,7.59,11.38,11.39-1.68-.76-3.37-1.49-5.07-2.18-.14-.05-.23.17-.1.24,1.73.93,3.5,1.81,5.27,2.67-2.83,0-5.65.02-8.47.13-2.73.11-5.45.28-8.17.46-.34.02-.34.53,0,.53,5.24.01,10.49,0,15.73,0-1.67.74-3.33,1.5-4.96,2.31-.16.08-.05.35.12.29,1.99-.7,3.95-1.48,5.91-2.28-2.05,2.04-4.08,4.1-6.04,6.22-1.84,2-3.64,4.04-5.43,6.08-.22.25.13.62.37.37,3.8-3.78,7.58-7.59,11.38-11.37-.67,1.7-1.31,3.4-1.94,5.11-.1.27.34.39.43.12.7-1.98,1.47-3.93,2.24-5.88,0,3.01.01,6.02.13,9.02.11,2.73.28,5.45.46,8.17.02.34.53.34.53,0,.01-5.69,0-11.39,0-17.08.6,1.6,1.2,3.21,1.8,4.81.14.37.73.2.59-.16-.59-1.51-1.17-3.02-1.75-4.53,2.01,2.02,4.01,4.05,6,6.1,1.9,1.95,3.87,3.8,5.81,5.7.21.2.5-.1.32-.32-1.57-1.85-3.09-3.71-4.76-5.48-1.66-1.75-3.34-3.49-5.03-5.22-.38-.38-.75-.77-1.13-1.15,1.54.72,3.09,1.43,4.64,2.14.35.16.66-.35.3-.52-1.71-.82-3.43-1.64-5.15-2.45,2.78.01,5.57.03,8.35.07,2.73.04,5.44-.05,8.17-.08.29,0,.28-.43,0-.45Z"/>
        <path class="cls-1" d="m44.61,56.34c-.68-1.42-1.37-2.83-2.03-4.26-.02-.05-.12-.01-.09.04.57,1.47,1.11,2.94,1.66,4.42.13.34.62.14.46-.2Z"/>
        <path class="cls-1" d="m45.41,59.04c.04.1.19.13.28.07.1-.06.12-.18.07-.28-.13-.26-.27-.53-.4-.79-.04-.09-.17-.12-.26-.07-.09.06-.11.16-.07.26.12.27.25.54.37.8Z"/>
        <path class="cls-1" d="m51.97,59.13c.12.05.26-.01.29-.14.05-.18.09-.35.16-.52l.19-.49c.13-.34.26-.67.39-1,.02-.05-.07-.09-.09-.04-.17.32-.33.64-.5.96-.08.16-.17.31-.25.47-.09.16-.19.31-.29.47-.07.11,0,.26.1.31Z"/>
        <path class="cls-1" d="m54.23,54.99c.4-.82.8-1.65,1.2-2.47.13-.26-.25-.48-.39-.23-.42.81-.84,1.63-1.25,2.44-.06.12-.03.27.09.35.11.07.29.03.35-.09Z"/>
        <path class="cls-1" d="m44.52,78.46c-.44,1.19-.9,2.36-1.39,3.53-.15.36.48.55.59.16.37-1.21.76-2.4,1.18-3.59.08-.24-.29-.34-.38-.1Z"/>
        <path class="cls-1" d="m45.75,76.29c-.07-.04-.15-.05-.22-.03-.07.02-.14.07-.17.13-.1.23-.2.46-.3.69-.02.03-.03.07-.03.11,0,.04,0,.08,0,.12.02.07.07.14.13.17.07.04.15.05.22.03.07-.02.14-.07.17-.13.1-.23.2-.46.29-.69.02-.03.03-.07.03-.11,0-.04,0-.08,0-.11-.02-.07-.07-.14-.13-.17Z"/>
        <path class="cls-1" d="m52.41,76.19c-.03-.07-.12-.12-.19-.14-.07-.02-.17-.01-.24.03-.07.04-.13.11-.14.19,0,.03,0,.06-.01.08,0,.06.01.11.04.16.13.3.26.59.39.89.03.07.12.13.19.15.08.02.18.01.24-.03.07-.04.13-.11.15-.19.02-.09,0-.16-.03-.24-.13-.3-.27-.59-.4-.89Z"/>
        <path class="cls-1" d="m53.45,79.18c-.17-.33-.65-.04-.49.29.55,1.16,1.09,2.32,1.68,3.47.08.15.28.19.42.11.15-.09.18-.27.11-.42-.54-1.16-1.13-2.3-1.71-3.45Z"/>
        <path class="cls-1" d="m58.37,71.92c-.23-.13-.43.21-.21.36.94.62,1.88,1.24,2.84,1.84.33.2.63-.32.3-.51-.97-.58-1.95-1.13-2.93-1.68Z"/>
        <path class="cls-1" d="m63.41,74.63c-.16-.1-.33-.2-.49-.3-.04-.03-.09-.04-.14-.04-.05-.01-.1,0-.15,0-.05.01-.09.03-.13.07-.04.03-.07.06-.1.1-.05.09-.07.19-.04.29.03.09.09.17.17.22.17.1.33.2.5.29.08.05.19.06.28.04.05-.01.09-.03.12-.07.04-.03.07-.06.09-.1.04-.09.07-.19.04-.28-.03-.09-.08-.17-.17-.22Z"/>
        <path class="cls-1" d="m57.33,63.91c-.29.14-.04.57.25.43.57-.27,1.15-.51,1.74-.72.59-.21,1.2-.39,1.79-.6.27-.1.16-.48-.12-.43-1.27.2-2.51.75-3.65,1.32Z"/>
        <path class="cls-1" d="m63.54,61.61s.05,0,.08.01c.06,0,.11-.01.16-.04.13-.07.26-.13.4-.2.04-.02.06-.05.09-.08.03-.03.05-.06.06-.1.01-.04.01-.08,0-.12,0-.04-.01-.08-.04-.11-.04-.07-.11-.12-.18-.14-.03,0-.05,0-.08-.01-.06,0-.11.01-.16.04-.13.07-.26.13-.4.2-.04.02-.06.05-.09.08-.03.03-.05.06-.06.1-.01.04-.01.08,0,.12,0,.04.01.08.04.11.04.07.11.12.18.14Z"/>
        <path class="cls-1" d="m36.87,72.9c.6-.29,1.24-.49,1.89-.62.16-.03.26-.23.22-.38-.05-.15-.22-.27-.38-.22-.67.22-1.3.55-1.88.96-.16.11-.02.34.15.26Z"/>
        <path class="cls-1" d="m35.34,73.18c-.41.3-.81.63-1.24.91-.43.28-.87.52-1.34.72-.16.07-.05.34.12.29.5-.16,1-.35,1.47-.57.49-.23.96-.49,1.38-.83.28-.24-.09-.73-.4-.51Z"/>
        <path class="cls-1" d="m40.71,63.73c.08-.13.04-.33-.1-.4-.66-.34-1.35-.63-2.05-.88-.1-.04-.22.03-.26.13-.04.09-.01.23.09.28.67.28,1.31.61,1.93.98.13.08.32.03.4-.1Z"/>
        <path class="cls-1" d="m36.27,61.82c.14.06.3.03.37-.12.07-.15-.02-.29-.17-.35-.03-.01-.05-.02-.08-.03.06.03-.03-.01-.04-.02-.05-.02-.1-.05-.15-.07-.1-.05-.2-.1-.3-.16-.2-.11-.39-.23-.57-.37-.09-.07-.24-.02-.3.06-.06.08-.07.24.02.31.38.3.78.56,1.22.75Z"/>
      </g>
      <g>
        <path class="cls-1" d="m83.02,38.96c-1.72-.14-3.43-.31-5.16-.36-1.72-.05-3.44-.08-5.16-.1-.59,0-1.17-.01-1.76-.02,1.25-.54,2.48-1.1,3.71-1.67.17-.08.05-.38-.13-.31-1.01.39-2.02.79-3.03,1.19,1.26-1.24,2.52-2.48,3.78-3.71,1.39-1.35,2.71-2.76,4.07-4.15.15-.15-.07-.36-.23-.23-1.32,1.12-2.65,2.21-3.91,3.4-1.25,1.18-2.49,2.38-3.72,3.59-.47.46-.95.93-1.42,1.39,0-.02,0-.04,0-.06.5-1.22,1.02-2.44,1.62-3.61.03-.05.03-.1.02-.14.06-.05.04-.16-.05-.16-.03,0-.05.01-.06.03-.1-.04-.22-.02-.27.12-.39,1.02-.82,2.03-1.25,3.04,0-1.87.02-3.74.05-5.6.03-1.95-.04-3.88-.06-5.83,0-.21-.3-.2-.32,0-.14,1.72-.31,3.43-.36,5.16-.05,1.72-.08,3.44-.1,5.16,0,.3,0,.59,0,.89-.36-.93-.72-1.85-1.1-2.78-.06-.14-.29-.09-.24.07.4,1.13.82,2.26,1.23,3.39-1.42-1.43-2.86-2.84-4.34-4.21-1.43-1.32-2.88-2.6-4.34-3.88-.18-.16-.44.09-.27.27,2.7,2.71,5.42,5.41,8.12,8.12-1.2-.54-2.4-1.07-3.62-1.56-.1-.04-.16.12-.07.17,1.24.66,2.49,1.29,3.76,1.91-2.02,0-4.03.01-6.04.09-1.94.08-3.89.2-5.83.33-.24.02-.25.38,0,.38,3.74,0,7.48,0,11.22,0-1.19.53-2.38,1.07-3.54,1.65-.11.06-.03.25.09.21,1.42-.5,2.82-1.05,4.22-1.63-1.46,1.46-2.91,2.93-4.31,4.44-1.32,1.43-2.6,2.88-3.88,4.34-.16.18.09.44.27.27,2.71-2.7,5.41-5.41,8.12-8.11-.47,1.21-.93,2.43-1.38,3.65-.07.19.24.28.31.09.5-1.41,1.05-2.8,1.6-4.2,0,2.15,0,4.29.09,6.44.08,1.94.2,3.89.33,5.83.02.24.38.25.38,0,0-4.06,0-8.13,0-12.19.43,1.15.86,2.29,1.28,3.43.1.26.52.14.42-.12-.42-1.08-.83-2.15-1.25-3.23,1.43,1.44,2.86,2.89,4.28,4.35,1.35,1.39,2.76,2.71,4.15,4.07.15.15.36-.07.23-.23-1.12-1.32-2.21-2.65-3.4-3.91-1.18-1.25-2.38-2.49-3.59-3.72-.27-.27-.54-.55-.81-.82,1.1.51,2.2,1.02,3.31,1.52.25.11.47-.25.22-.37-1.22-.59-2.45-1.17-3.67-1.75,1.99,0,3.97.02,5.96.05,1.95.03,3.88-.04,5.83-.06.21,0,.2-.3,0-.32Z"/>
        <path class="cls-1" d="m66.71,30.76c-.49-1.01-.98-2.02-1.44-3.04-.02-.04-.08-.01-.07.03.41,1.05.79,2.1,1.18,3.15.09.24.45.1.33-.14Z"/>
        <path class="cls-1" d="m67.28,32.69c.03.07.14.09.2.05.07-.04.09-.13.05-.2-.1-.19-.19-.37-.29-.56-.03-.06-.12-.09-.18-.05-.07.04-.08.11-.05.18.09.19.18.38.27.57Z"/>
        <path class="cls-1" d="m71.96,32.75c.08.04.18-.01.21-.1.04-.12.07-.25.11-.37.04-.12.09-.23.13-.35.09-.24.19-.48.28-.72.02-.04-.05-.06-.07-.03-.12.23-.24.46-.36.68-.06.11-.12.22-.18.33-.06.12-.14.22-.21.33-.05.08,0,.19.07.22Z"/>
        <path class="cls-1" d="m73.57,29.8c.29-.59.57-1.17.86-1.76.09-.18-.18-.35-.28-.16-.3.58-.6,1.16-.89,1.74-.04.09-.02.2.06.25.08.05.2.02.25-.06Z"/>
        <path class="cls-1" d="m66.64,46.55c-.32.85-.64,1.69-1,2.52-.11.25.34.39.42.12.26-.86.54-1.71.84-2.56.06-.17-.21-.24-.27-.07Z"/>
        <path class="cls-1" d="m67.52,45s-.1-.04-.16-.02c-.05.02-.1.05-.12.09-.07.16-.14.33-.21.49-.02.02-.02.05-.02.08,0,.03,0,.06,0,.08.01.05.05.1.1.12.05.03.11.04.16.02.05-.02.1-.05.12-.1.07-.17.14-.33.21-.5.01-.02.02-.05.02-.08,0-.03,0-.05,0-.08-.01-.05-.05-.1-.09-.12Z"/>
        <path class="cls-1" d="m72.27,44.92s-.08-.09-.13-.1c-.05-.01-.12,0-.17.02-.05.03-.09.08-.1.13,0,.02,0,.04,0,.06,0,.04.01.08.03.11.09.21.19.42.28.64.02.05.09.09.13.1.05.01.13,0,.17-.02.05-.03.09-.08.1-.13.01-.06,0-.12-.02-.17-.09-.21-.19-.42-.28-.63Z"/>
        <path class="cls-1" d="m73.01,47.06c-.12-.24-.46-.03-.35.21.39.83.78,1.66,1.2,2.47.05.11.2.14.3.08.11-.06.13-.19.08-.3-.39-.83-.81-1.64-1.22-2.46Z"/>
        <path class="cls-1" d="m76.52,41.88c-.17-.09-.31.15-.15.25.67.44,1.34.89,2.02,1.31.23.14.45-.23.21-.37-.69-.41-1.39-.8-2.09-1.2Z"/>
        <path class="cls-1" d="m80.12,43.81c-.12-.07-.23-.14-.35-.21-.03-.02-.06-.03-.1-.03-.04,0-.07,0-.11,0-.03,0-.06.02-.09.05-.03.02-.05.04-.07.07-.03.06-.05.14-.03.2.02.07.06.12.12.16.12.07.24.14.35.21.06.03.14.04.2.03.03,0,.06-.02.09-.05.03-.02.05-.04.07-.07.03-.06.05-.13.03-.2-.02-.07-.06-.12-.12-.16Z"/>
        <path class="cls-1" d="m75.78,36.17c-.21.1-.03.41.18.31.4-.19.82-.37,1.24-.52s.85-.27,1.27-.43c.2-.07.12-.34-.08-.31-.91.14-1.79.54-2.61.94Z"/>
        <path class="cls-1" d="m80.21,34.52s.04,0,.06,0c.04,0,.08-.01.11-.03.09-.05.19-.09.28-.14.03-.01.05-.03.06-.06.02-.02.03-.05.04-.07,0-.03.01-.06,0-.09,0-.03-.01-.06-.03-.08-.03-.05-.08-.09-.13-.1-.02,0-.04,0-.06,0-.04,0-.08.01-.11.03-.09.05-.19.09-.28.14-.03.01-.05.03-.06.06-.02.02-.03.05-.04.07,0,.03-.01.06,0,.09,0,.03,0,.06.03.08.03.05.08.09.13.1Z"/>
        <path class="cls-1" d="m61.18,42.58c.43-.2.89-.35,1.35-.44.11-.02.19-.16.15-.27-.04-.11-.15-.19-.27-.15-.48.16-.93.39-1.34.68-.11.08-.02.25.11.19Z"/>
        <path class="cls-1" d="m60.09,42.77c-.3.21-.58.45-.88.65-.3.2-.62.37-.96.51-.12.05-.03.24.09.21.36-.11.71-.25,1.05-.41.35-.16.69-.35.98-.59.2-.17-.07-.52-.28-.37Z"/>
        <path class="cls-1" d="m63.92,36.03c.05-.09.03-.23-.07-.28-.47-.24-.96-.45-1.47-.63-.07-.03-.16.02-.19.09-.03.06,0,.17.06.2.47.2.93.44,1.38.7.1.06.23.02.28-.07Z"/>
        <path class="cls-1" d="m60.76,34.68c.1.04.22.02.26-.09.05-.11-.02-.21-.12-.25-.02,0-.04-.01-.06-.02.04.02-.02,0-.03-.01-.04-.02-.07-.03-.11-.05-.07-.03-.14-.07-.21-.11-.14-.08-.28-.17-.41-.26-.07-.05-.17-.02-.22.04-.05.06-.05.17.01.22.27.22.56.4.87.54Z"/>
      </g>
      <g>
        <path class="cls-1" d="m20.71,65.48c-.94-.07-1.87-.17-2.81-.2-.94-.03-1.87-.04-2.81-.05-.32,0-.64,0-.96,0,.68-.3,1.35-.6,2.02-.91.09-.04.03-.21-.07-.17-.55.21-1.1.43-1.65.65.68-.68,1.37-1.35,2.06-2.02.76-.74,1.47-1.5,2.21-2.26.08-.08-.04-.19-.12-.12-.72.61-1.44,1.2-2.12,1.85-.68.64-1.35,1.29-2.02,1.95-.26.25-.51.5-.77.76,0-.01,0-.02,0-.03.27-.67.55-1.33.88-1.97.01-.03.02-.05,0-.08.03-.03.02-.09-.03-.09-.01,0-.03,0-.03.01-.05-.02-.12,0-.15.07-.21.56-.45,1.1-.68,1.65,0-1.02.01-2.03.03-3.05.01-1.06-.02-2.11-.03-3.17,0-.11-.17-.11-.17,0-.07.94-.17,1.87-.2,2.81-.03.94-.04,1.87-.05,2.81,0,.16,0,.32,0,.48-.2-.5-.39-1.01-.6-1.51-.03-.08-.16-.05-.13.04.22.62.45,1.23.67,1.84-.77-.78-1.56-1.55-2.36-2.29-.78-.72-1.57-1.41-2.36-2.11-.1-.09-.24.05-.15.15,1.47,1.48,2.94,2.94,4.42,4.42-.65-.29-1.31-.58-1.97-.85-.05-.02-.09.06-.04.09.67.36,1.36.7,2.04,1.04-1.1,0-2.19,0-3.29.05-1.06.04-2.11.11-3.17.18-.13,0-.13.2,0,.21,2.03,0,4.07,0,6.1,0-.65.29-1.29.58-1.93.9-.06.03-.02.14.05.11.77-.27,1.53-.57,2.29-.89-.8.79-1.58,1.59-2.34,2.41-.72.78-1.41,1.57-2.11,2.36-.09.1.05.24.15.15,1.47-1.47,2.94-2.94,4.41-4.41-.26.66-.51,1.32-.75,1.98-.04.1.13.15.17.05.27-.77.57-1.52.87-2.28,0,1.17,0,2.33.05,3.5.04,1.06.11,2.11.18,3.17,0,.13.2.13.21,0,0-2.21,0-4.42,0-6.63.23.62.47,1.25.7,1.87.05.14.28.08.23-.06-.23-.58-.45-1.17-.68-1.76.78.79,1.56,1.57,2.33,2.37.74.76,1.5,1.47,2.26,2.21.08.08.19-.04.12-.12-.61-.72-1.2-1.44-1.85-2.12-.64-.68-1.29-1.35-1.95-2.02-.15-.15-.29-.3-.44-.45.6.28,1.2.55,1.8.83.14.06.25-.14.12-.2-.66-.32-1.33-.64-2-.95,1.08,0,2.16.01,3.24.03,1.06.01,2.11-.02,3.17-.03.11,0,.11-.16,0-.17Z"/>
        <path class="cls-1" d="m11.84,61.02c-.26-.55-.53-1.1-.79-1.65,0-.02-.04,0-.04.02.22.57.43,1.14.64,1.71.05.13.24.05.18-.08Z"/>
        <path class="cls-1" d="m12.15,62.07s.07.05.11.03c.04-.02.05-.07.03-.11-.05-.1-.1-.2-.16-.31-.02-.03-.07-.05-.1-.03-.04.02-.04.06-.03.1.05.1.1.21.15.31Z"/>
        <path class="cls-1" d="m14.69,62.1s.1,0,.11-.05c.02-.07.04-.14.06-.2.02-.06.05-.13.07-.19.05-.13.1-.26.15-.39,0-.02-.03-.04-.04-.02-.06.12-.13.25-.19.37-.03.06-.06.12-.1.18-.03.06-.07.12-.11.18-.03.04,0,.1.04.12Z"/>
        <path class="cls-1" d="m15.57,60.5c.16-.32.31-.64.47-.96.05-.1-.1-.19-.15-.09-.16.32-.32.63-.49.95-.02.05-.01.11.04.13.04.03.11.01.13-.04Z"/>
        <path class="cls-1" d="m11.8,69.6c-.17.46-.35.92-.54,1.37-.06.14.19.21.23.06.14-.47.3-.93.46-1.39.03-.09-.11-.13-.15-.04Z"/>
        <path class="cls-1" d="m12.28,68.76s-.06-.02-.09-.01c-.03,0-.06.03-.07.05-.04.09-.08.18-.12.27,0,.01-.01.03-.01.04,0,.01,0,.03,0,.04,0,.03.03.05.05.07.03.01.06.02.09.01.03,0,.06-.03.07-.05.04-.09.08-.18.11-.27,0-.01.01-.03.01-.04,0-.01,0-.03,0-.04,0-.03-.03-.05-.05-.07Z"/>
        <path class="cls-1" d="m14.86,68.72s-.05-.05-.07-.06c-.03,0-.07,0-.09.01-.03.02-.05.04-.06.07,0,.01,0,.02,0,.03,0,.02,0,.04.02.06.05.12.1.23.15.35.01.03.05.05.07.06.03,0,.07,0,.09-.01.03-.02.05-.04.06-.07,0-.03,0-.06-.01-.09-.05-.11-.1-.23-.15-.34Z"/>
        <path class="cls-1" d="m15.27,69.88c-.07-.13-.25-.02-.19.11.21.45.42.9.65,1.35.03.06.11.07.16.04.06-.04.07-.1.04-.16-.21-.45-.44-.89-.67-1.34Z"/>
        <path class="cls-1" d="m17.18,67.06c-.09-.05-.17.08-.08.14.37.24.73.48,1.1.71.13.08.24-.12.12-.2-.37-.22-.76-.44-1.14-.65Z"/>
        <path class="cls-1" d="m19.13,68.12c-.06-.04-.13-.08-.19-.12-.02-.01-.03-.02-.05-.02-.02,0-.04,0-.06,0-.02,0-.03.01-.05.03-.02.01-.03.02-.04.04-.02.03-.03.07-.01.11.01.04.03.07.07.09.06.04.13.08.19.11.03.02.07.02.11.01.02,0,.03-.01.05-.03.02-.01.03-.02.04-.04.02-.03.03-.07.01-.11-.01-.04-.03-.07-.07-.09Z"/>
        <path class="cls-1" d="m16.77,63.96c-.11.06-.01.22.1.17.22-.11.44-.2.67-.28s.46-.15.69-.23c.11-.04.06-.18-.05-.17-.49.08-.97.29-1.42.51Z"/>
        <path class="cls-1" d="m19.18,63.06s.02,0,.03,0c.02,0,.04,0,.06-.02.05-.03.1-.05.15-.08.01,0,.03-.02.03-.03.01-.01.02-.03.02-.04,0-.02,0-.03,0-.05,0-.02,0-.03-.01-.04-.02-.03-.04-.05-.07-.06-.01,0-.02,0-.03,0-.02,0-.04,0-.06.02-.05.03-.1.05-.15.08-.01,0-.03.02-.03.03-.01.01-.02.03-.02.04,0,.02,0,.03,0,.05,0,.02,0,.03.01.04.02.03.04.05.07.06Z"/>
        <path class="cls-1" d="m8.83,67.44c.23-.11.48-.19.73-.24.06-.01.1-.09.08-.15-.02-.06-.08-.1-.15-.08-.26.09-.5.21-.73.37-.06.04,0,.13.06.1Z"/>
        <path class="cls-1" d="m8.24,67.55c-.16.12-.31.24-.48.35-.17.11-.34.2-.52.28-.06.03-.02.13.05.11.19-.06.39-.14.57-.22.19-.09.37-.19.53-.32.11-.09-.04-.28-.15-.2Z"/>
        <path class="cls-1" d="m10.32,63.89c.03-.05.01-.13-.04-.15-.26-.13-.52-.25-.8-.34-.04-.01-.09.01-.1.05-.01.04,0,.09.03.11.26.11.51.24.75.38.05.03.12.01.15-.04Z"/>
        <path class="cls-1" d="m8.6,63.15c.06.02.12.01.14-.05.03-.06,0-.11-.07-.14-.01,0-.02,0-.03-.01.02.01,0,0-.01,0-.02,0-.04-.02-.06-.03-.04-.02-.08-.04-.12-.06-.08-.04-.15-.09-.22-.14-.04-.03-.09,0-.12.02-.03.03-.03.09,0,.12.15.12.3.22.47.29Z"/>
      </g>
    </g>
  </g>
</svg>